<svg width="27" height="53" viewBox="0 0 27 53" fill="none" xmlns="http://www.w3.org/2000/svg">
<path d="M27 49.2142C27 51.3047 25.4886 53 23.625 53H3.375C1.51137 53 0 51.3047 0 49.2142C0 47.1237 1.51137 45.4284 3.375 45.4284H10.125V10.8591L5.24707 14.503C3.69352 15.6742 1.60207 15.1892 0.566895 13.4619C-0.466383 11.7228 -0.0477878 9.36848 1.50293 8.20907L11.6279 0.637438C12.6645 -0.137116 13.9957 -0.212833 15.0915 0.448857C16.1895 1.10712 16.875 2.39074 16.875 3.78558V45.4296H23.625C25.4918 45.4284 27 47.1202 27 49.2142Z" fill="#93D500"/>
</svg>
