<svg width="27" height="53" viewBox="0 0 27 53" fill="none" xmlns="http://www.w3.org/2000/svg">
<path d="M27 49.2067C27 51.3013 25.7909 53 24.3 53H2.69973C1.5961 53 0.60468 52.0572 0.193769 50.6185C-0.216213 49.1818 0.0369144 47.5364 0.83452 46.466L17.1697 24.524C19.8157 20.9476 20.0343 15.0406 17.6601 11.0813C16.402 8.98434 14.6344 7.74795 12.6844 7.59859C10.7492 7.4599 8.88449 8.41653 7.46951 10.3132L4.5155 14.0828C3.41187 15.4946 1.70325 15.3737 0.701712 13.8253C-0.300927 12.281 -0.219167 9.87459 0.883964 8.46394L3.79071 4.75359C6.20977 1.51267 9.56119 -0.23819 12.9793 0.0261572C16.3821 0.285526 19.5935 2.5345 21.7881 6.19387C25.99 13.1938 25.6019 23.655 20.9064 29.997L9.43125 45.4074H24.3C25.7934 45.4133 27 47.1085 27 49.2067Z" fill="#93D500"/>
</svg>
