<svg width="27" height="53" viewBox="0 0 27 53" fill="none" xmlns="http://www.w3.org/2000/svg">
<path d="M27 36.9107C27 45.7811 21.8514 53 15.525 53H8.74125C4.83131 53 1.37447 49.5065 0.210938 44.3071C-0.261056 42.3231 0.5049 40.1806 1.91953 39.5193C3.33281 38.8557 4.86338 39.9315 5.33419 41.915C5.83386 44.0172 7.23094 45.4286 8.81297 45.4286H15.525C18.8747 45.4286 21.6 41.6074 21.6 36.9107C21.6 32.2141 18.8747 28.3929 15.525 28.3929H6.75C5.63625 28.3929 4.63641 27.4353 4.23309 25.9783C3.82978 24.5243 4.10569 22.8681 4.92581 21.8152L16.0127 7.57143H2.7C1.20909 7.57143 0 5.87614 0 3.78571C0 1.69529 1.20909 0 2.7 0H22.95C24.0638 0 25.0636 0.957549 25.4669 2.41458C25.8703 3.86971 25.5948 5.52241 24.7748 6.57768L13.6879 20.8214H15.525C21.7772 20.8214 27 28.0379 27 36.9107Z" fill="#93D500"/>
</svg>
