<svg width="135" height="146" viewBox="0 0 135 146" fill="none" xmlns="http://www.w3.org/2000/svg">
<path d="M55.4643 123.135C86.0965 135.763 113.917 138.763 117.603 129.836C121.29 120.91 99.4457 103.436 68.8136 90.8078C38.1814 78.1797 10.3608 75.1793 6.6745 84.1061C2.98821 93.033 24.8322 110.507 55.4643 123.135Z" fill="#93D500"/>
<path d="M82.9019 44.0631C84.1774 44.0631 85.3058 43.0235 85.3549 41.7365L86.3852 23.3715C86.4833 21.9855 85.404 20.847 84.0793 20.748C82.7056 20.649 81.5772 21.738 81.4791 23.0745L80.4488 41.4395C80.3507 42.8255 81.43 43.9641 82.7547 44.0631C82.8037 44.0631 82.8528 44.0631 82.9019 44.0631Z" fill="black"/>
<path d="M97.522 37.3804C98.7976 37.3804 99.926 36.3408 99.975 35.0538L101.054 15.7978C101.152 14.4118 100.073 13.2732 98.7485 13.1742C97.4239 13.0752 96.2464 14.1643 96.1483 15.5008L95.0689 34.7568C94.9708 36.1428 96.0502 37.2814 97.3748 37.3804C97.4239 37.3804 97.4729 37.3804 97.522 37.3804Z" fill="black"/>
<path d="M133.238 78.0704C130.932 75.1993 127.155 74.2588 123.818 75.6943L93.4499 88.5646C92.1743 89.1091 91.5855 90.5447 92.1252 91.8317C92.6649 93.1187 94.0876 93.7128 95.3632 93.1682L125.732 80.2979C127.007 79.7534 128.528 80.1494 129.411 81.2384C129.951 81.9315 130.196 82.8225 130.049 83.7135C129.902 84.6045 129.411 85.3965 128.626 85.8916C115.38 94.6038 85.2076 111.83 83.7849 112.672C83.7358 112.721 83.6868 112.721 83.6377 112.771C79.9582 114.949 75.8861 115.543 70.6857 114.652C70.3913 114.602 65.1909 113.959 46.4987 111.632L38.2074 110.494V76.9813C39.5811 76.8823 40.7586 76.8328 41.2983 76.8328H41.5926C53.0729 76.0903 64.0134 78.3179 75.5917 80.6939C77.0636 80.9909 78.5844 81.2879 80.0563 81.5849C81.6262 81.882 82.8037 83.3175 82.8037 84.951C82.8037 85.05 82.8037 85.149 82.7546 85.347C82.6565 86.2876 82.1659 86.9806 81.7734 87.3271C81.1356 87.9706 80.3016 88.3171 79.3694 88.3171H56.2618C54.8881 88.3171 53.8088 89.4062 53.8088 90.7922C53.8088 92.1782 54.8881 93.2673 56.2618 93.2673H79.4675C81.6753 93.2673 83.7849 92.3762 85.3548 90.7922C86.6795 89.4062 87.5135 87.7231 87.7097 85.9906C87.7588 85.644 87.8079 85.248 87.8079 84.9015C87.8079 80.8919 84.9623 77.4268 81.0865 76.6843C79.6147 76.3873 78.1429 76.0903 76.6711 75.7933C65.289 73.4667 53.4653 71.0412 41.3964 71.8332H41.1511C40.6114 71.8827 39.434 71.9322 38.1584 71.9817C37.864 70.9422 36.9809 70.1501 35.8035 70.1501H17.4547C16.081 70.1501 15.0017 71.2392 15.0017 72.6252V114.404C15.0017 115.79 16.081 116.879 17.4547 116.879H35.7544C36.7356 116.879 37.5697 116.285 37.9621 115.444L45.91 116.434C55.7712 117.671 69.2629 119.305 69.8516 119.404C71.6669 119.75 73.4331 119.899 75.1011 119.899C79.1732 119.899 82.8037 118.909 86.0907 116.978C86.1398 116.978 86.1398 116.929 86.1889 116.929C86.4832 116.731 117.686 98.9599 131.325 90.0002C133.238 88.7626 134.563 86.7331 134.906 84.456C135.25 82.179 134.661 79.8524 133.238 78.0704ZM33.3014 111.979H19.9078V75.1993H33.3014V111.979Z" fill="black"/>
<path d="M72.4514 46.4885C73.5798 45.6965 73.8251 44.1125 73.0401 43.0234C68.6246 36.7863 68.9681 28.6186 73.8741 22.7279C83.6863 10.9961 99.1895 6.7885 111.307 5.35296C111.798 12.3821 110.817 20.2528 108.56 27.876C107.726 30.6481 99.9745 54.8542 83.3919 49.8546C82.7051 49.6071 78.3387 47.6271 77.4065 47.0825C76.8668 46.6865 76.18 46.4885 75.4931 46.5875C72.3533 47.132 69.1643 58.4678 68.919 63.814C68.8699 65.2 69.9002 66.3385 71.2739 66.388C71.323 66.388 71.372 66.388 71.372 66.388C72.6967 66.388 73.776 65.3485 73.8251 64.012C74.0213 59.3589 75.7385 54.7552 76.8178 52.2802C77.1612 52.4287 77.5537 52.6267 77.9953 52.8247C78.7802 53.1712 81.2823 54.3592 81.9201 54.5077C98.0611 59.3589 108.904 43.9145 113.27 29.2126C115.968 20.1043 116.949 10.6001 115.968 2.18488C115.723 0.89785 114.447 -0.0921761 113.123 0.00682646C94.0872 1.78887 79.2218 8.52105 70.0965 19.3618C63.6695 27.0345 63.228 37.6278 69.0171 45.746C69.8021 47.033 71.323 47.33 72.4514 46.4885Z" fill="black"/>
</svg>
