<svg width="135" height="146" viewBox="0 0 135 146" fill="none" xmlns="http://www.w3.org/2000/svg">
<path d="M55.4643 123.135C86.0965 135.763 113.917 138.763 117.603 129.836C121.29 120.91 99.4457 103.436 68.8136 90.8078C38.1814 78.1797 10.3608 75.1793 6.6745 84.1061C2.98821 93.033 24.8322 110.507 55.4643 123.135Z" fill="#93D500"/>
<path d="M15.0017 26.018C15.3118 27.4686 15.7865 28.8791 16.4165 30.2221L20.4583 30.5917C20.9524 31.3928 21.5134 32.1506 22.1353 32.8573L21.2496 36.7215C22.3704 37.727 23.5991 38.6056 24.9132 39.3413L28.3874 37.329C29.2745 37.6896 30.1902 37.9754 31.125 38.1835L32.738 41.9651H37.2655L38.8785 38.1836C39.8132 37.9755 40.7289 37.6897 41.6159 37.3291L45.0903 39.3414L48.7538 36.7218L47.8679 32.8576C48.49 32.1511 49.0511 31.3932 49.5452 30.5921L53.5871 30.2225C54.2171 28.8794 54.6918 27.4688 55.002 26.0183L51.9439 23.3847V20.579L55.002 17.9455C54.6919 16.495 54.2173 15.0845 53.5873 13.7414L49.5454 13.3718C49.0513 12.5708 48.4903 11.8129 47.8684 11.1063L48.7541 7.24215C47.6333 6.23668 46.4046 5.35807 45.0905 4.62234L41.6163 6.63466C40.7292 6.27395 39.8135 5.98811 38.8787 5.78015L37.2657 1.99854H32.7382L31.1252 5.78003C30.1905 5.98813 29.2748 6.274 28.3878 6.63466L24.9134 4.62234C23.5994 5.35795 22.3707 6.23644 21.2499 7.24183L22.1358 11.106C21.5137 11.8126 20.9526 12.5704 20.4586 13.3716L16.4167 13.7412C15.7866 15.0842 15.3118 16.4948 15.0017 17.9454L18.0597 20.5788V23.3847L15.0017 26.018ZM35.0018 13.9885C36.5841 13.9885 38.1308 14.4573 39.4464 15.3356C40.762 16.2139 41.7874 17.4623 42.3929 18.9229C42.9984 20.3835 43.1569 21.9907 42.8482 23.5412C42.5395 25.0918 41.7776 26.5161 40.6587 27.634C39.5399 28.7518 38.1144 29.5131 36.5626 29.8216C35.0107 30.13 33.4022 29.9717 31.9404 29.3667C30.4785 28.7617 29.2291 27.7372 28.35 26.4227C27.471 25.1082 27.0018 23.5628 27.0018 21.9818C27.0018 19.8619 27.8447 17.8287 29.345 16.3297C30.8453 14.8307 32.8801 13.9885 35.0018 13.9885Z" fill="black"/>
<path d="M37.0018 103.912H21.0017V119.899H37.0018V103.912Z" fill="black"/>
<path d="M67.0023 97.9172H51.0022V119.899H67.0023V97.9172Z" fill="black"/>
<path d="M97.0023 89.9243H81.0022V119.899H97.0023V89.9243Z" fill="black"/>
<path d="M127.003 71.9395H111.002V119.899H127.003V71.9395Z" fill="black"/>
<path d="M84.76 45.0093C84.6333 44.7755 84.4611 44.5693 84.2537 44.4028C84.0463 44.2363 83.8077 44.1127 83.552 44.0394L69.5519 40.0427L68.4523 43.8872L78.2534 46.6851L17.9041 86.256L20.0994 89.597L79.4583 50.6754L76.1681 61.3608L79.9904 62.5356L84.9133 46.549C84.9917 46.2951 85.0186 46.0281 84.9923 45.7637C84.9659 45.4993 84.887 45.2428 84.76 45.0093Z" fill="black"/>
<path d="M102.002 27.8465L100.35 37.9681L109.002 33.1901L117.654 37.9681L116.002 27.8465L123.002 20.6785L113.328 19.2018L109.002 9.99146L104.676 19.2018L95.0022 20.6785L102.002 27.8465Z" fill="black"/>
<path d="M112.842 47.5964C111.585 47.819 110.31 47.9307 109.033 47.9305H109.002C107.729 47.931 106.458 47.8206 105.204 47.6003L104.516 51.5672C106.014 51.7831 107.522 51.9131 109.035 51.9564C110.544 51.9563 112.051 51.8234 113.538 51.5593L112.842 47.5964Z" fill="black"/>
<path d="M120.012 44.9602L122.018 48.4435C124.643 46.9137 126.981 44.9372 128.925 42.6033L125.862 40.0125C124.215 41.9893 122.236 43.6637 120.012 44.9602Z" fill="black"/>
<path d="M125.808 11.4972C127.467 13.4691 128.769 15.7158 129.653 18.1357L133.407 16.7439C132.362 13.8837 130.823 11.2285 128.861 8.89868L125.808 11.4972Z" fill="black"/>
<path d="M104.414 0.0234375C101.426 0.559843 98.5573 1.62068 95.9397 3.15682L97.9534 6.63621C100.167 5.33719 102.593 4.44008 105.119 3.98643L104.414 0.0234375Z" fill="black"/>
<path d="M133.443 34.7381C134.484 31.8487 135.011 28.7999 135.002 25.7291L134.119 25.7134L131.002 25.788C131.006 28.3701 130.56 30.9331 129.683 33.3621L133.443 34.7381Z" fill="black"/>
<path d="M121.93 3.08031C119.304 1.55903 116.428 0.516058 113.436 0L112.758 3.9669C115.287 4.40412 117.719 5.28594 119.94 6.57141L121.93 3.08031Z" fill="black"/>
<path d="M84.5803 34.7855L88.3362 33.4016C87.455 30.9755 87.0039 28.4144 87.0032 25.8335L83.0032 25.8415C83.0044 28.8918 83.5381 31.9185 84.5803 34.7855Z" fill="black"/>
<path d="M92.1682 40.0442L89.1096 42.6389C91.0578 44.9702 93.3987 46.9433 96.0267 48.4693L98.0267 44.9822C95.8007 43.69 93.818 42.0189 92.1682 40.0442Z" fill="black"/>
<path d="M84.5452 16.8898L88.3069 18.2579C89.1777 15.8323 90.4667 13.5776 92.1155 11.596L89.0452 9.01294C87.0971 11.3564 85.5742 14.0222 84.5452 16.8898Z" fill="black"/>
</svg>
