<svg width="135" height="146" viewBox="0 0 135 146" fill="none" xmlns="http://www.w3.org/2000/svg">
<path d="M55.0306 123.135C85.4231 135.763 113.026 138.763 116.684 129.836C120.341 120.91 98.668 103.436 68.2754 90.8078C37.8829 78.1797 10.2799 75.1793 6.62247 84.1061C2.96502 93.033 24.6381 110.507 55.0306 123.135Z" fill="#93D500"/>
<path d="M80.6582 8.12866H70.2801C69.9756 8.12866 69.6874 8.26708 69.4957 8.50548L64.5949 14.602C64.27 15.0061 64.3005 15.5921 64.6658 15.9598L74.7558 26.1208C74.9526 26.3191 75.211 26.4183 75.4691 26.4183C75.7273 26.4183 75.9857 26.3191 76.1825 26.1208L86.2725 15.9598C86.6378 15.5921 86.6683 15.0061 86.3434 14.602L81.4426 8.50548C81.2509 8.26708 80.9627 8.12866 80.6582 8.12866ZM83.4441 14.2252H80.0451L77.3544 10.1608H80.1769L83.4441 14.2252ZM72.9234 16.2574H78.0149L75.4692 22.6664L72.9234 16.2574ZM73.3185 14.2252L75.4692 10.9765L77.6199 14.2252H73.3185ZM70.7614 10.1608H73.5839L70.8932 14.2252H67.4942L70.7614 10.1608Z" fill="black"/>
<path d="M134.953 90.1276L113.168 20.3219H123.901C130.021 20.3219 135 15.3079 135 9.14483C135 8.5837 134.548 8.12874 133.991 8.12874H127.937C127.669 8.12874 127.412 8.23579 127.223 8.4263C124.811 10.8554 121.604 12.1931 118.193 12.1931H90.2992C88.893 5.2447 82.7779 0 75.4689 0C68.1599 0 62.0448 5.2447 60.6386 12.1931H32.7448C29.3338 12.1931 26.1267 10.8554 23.7146 8.4263C23.5254 8.23579 23.2687 8.12874 23.0012 8.12874H16.9472C16.39 8.12874 15.9382 8.5837 15.9382 9.14483C15.9382 15.3079 20.9172 20.3219 27.0372 20.3219H37.7702L15.9845 90.1276L15.9891 90.1291C15.959 90.2254 15.9382 90.3259 15.9382 90.4323C15.9382 95.4748 20.0119 99.5771 25.0192 99.5771H57.307C62.3143 99.5771 66.3879 95.4748 66.3879 90.4323C66.3879 90.3259 66.3672 90.2254 66.3371 90.1291L66.3416 90.1276L44.5559 20.3219H61.2018C62.7243 24.6449 66.1311 28.0756 70.4239 29.6089V97.5449H69.4149C66.633 97.5449 64.3699 99.824 64.3699 102.625V105.674H63.3609C58.3537 105.674 54.28 109.776 54.28 114.818V118.883C54.28 119.444 54.7318 119.899 55.289 119.899H95.6487C96.206 119.899 96.6577 119.444 96.6577 118.883V114.818C96.6577 109.776 92.5841 105.674 87.5768 105.674H86.5678V102.625C86.5678 99.824 84.3047 97.5449 81.5228 97.5449H80.5138V29.6089C84.8067 28.0756 88.2134 24.6449 89.7359 20.3219H106.382L84.5961 90.1276L84.6007 90.1291C84.5706 90.2254 84.5498 90.3259 84.5498 90.4323C84.5498 95.4748 88.6235 99.5771 93.6308 99.5771H125.919C130.926 99.5771 135 95.4748 135 90.4323C135 90.3259 134.979 90.2254 134.949 90.1291L134.953 90.1276ZM104.724 72.0303C104.698 71.8011 104.596 71.5873 104.434 71.4241L100.78 67.7442L102.233 60.4294C102.445 59.3594 103.216 58.4804 104.244 58.1355L108.076 56.8491C108.353 56.756 108.577 56.5461 108.689 56.2738C108.801 56.0017 108.79 55.6941 108.659 55.4306L108.446 55.0017C107.335 52.7635 106.748 50.2581 106.748 47.7564C106.748 46.0756 108.105 44.7081 109.775 44.7081C111.444 44.7081 112.802 46.0756 112.802 47.7564C112.802 50.2581 112.214 52.7635 111.103 55.0016L110.89 55.4306C110.759 55.6941 110.748 56.0017 110.861 56.2738C110.972 56.5461 111.196 56.7559 111.474 56.8491L115.306 58.1355C116.334 58.4804 117.104 59.3594 117.317 60.4294L118.769 67.7442L115.115 71.424C114.953 71.5873 114.851 71.8011 114.826 72.0303L112.908 89.4162H106.642L104.724 72.0303ZM36.112 72.0303C36.0866 71.8011 35.9846 71.5873 35.8225 71.4241L32.1684 67.7442L33.621 60.4294C33.8336 59.3594 34.6041 58.4804 35.6321 58.1355L39.4641 56.8491C39.7417 56.756 39.9654 56.5461 40.0772 56.2738C40.1893 56.0017 40.1785 55.6941 40.0474 55.4306L39.8346 55.0017C38.7234 52.7635 38.1361 50.2581 38.1361 47.7564C38.1361 46.0756 39.4939 44.7081 41.1631 44.7081C42.8323 44.7081 44.1901 46.0756 44.1901 47.7564C44.1901 50.2581 43.6028 52.7635 42.4918 55.0016L42.2787 55.4306C42.1477 55.6941 42.1368 56.0017 42.2489 56.2738C42.3608 56.5461 42.5844 56.7559 42.8621 56.8491L46.6941 58.1355C47.722 58.4804 48.4926 59.3594 48.7052 60.4294L50.1578 67.7442L46.5037 71.424C46.3416 71.5873 46.2396 71.8011 46.2142 72.0303L44.296 89.4162H38.0302L36.112 72.0303ZM64.0041 89.4162H46.3264L48.1807 72.6091L51.9664 68.7967C52.2051 68.5565 52.3086 68.212 52.2423 67.8789L50.6837 60.031C50.3297 58.2476 49.0454 56.7825 47.3321 56.2075L44.5911 55.2874C45.6506 52.931 46.208 50.342 46.208 47.7564C46.208 44.955 43.945 42.6759 41.1631 42.6759C38.3812 42.6759 36.1181 44.955 36.1181 47.7564C36.1181 50.342 36.6753 52.9308 37.7351 55.2874L34.9941 56.2075C33.2808 56.7825 31.9964 58.2476 31.6424 60.031L30.0839 67.8789C30.0176 68.212 30.1211 68.5565 30.3598 68.7967L34.1454 72.6091L35.9997 89.4162H18.3221L39.8857 20.3219H42.4405L64.0041 89.4162ZM27.0372 18.2897C22.3711 18.2897 18.5154 14.7269 18.0119 10.1609H22.5915C25.3475 12.7854 28.9364 14.2253 32.7448 14.2253H60.3713C60.3492 14.5615 60.334 14.8996 60.334 15.2414C60.334 16.2851 60.4391 17.3044 60.6386 18.2897H27.0372ZM84.5498 102.625V105.674H66.3879V102.625C66.3879 100.945 67.7457 99.5771 69.4149 99.5771H81.5228C83.192 99.5771 84.5498 100.945 84.5498 102.625ZM75.4689 28.4506C68.2362 28.4506 62.352 22.525 62.352 15.2414C62.352 7.95782 68.2362 2.03219 75.4689 2.03219C82.7016 2.03219 88.5858 7.95782 88.5858 15.2414C88.5858 22.525 82.7016 28.4506 75.4689 28.4506ZM90.5664 14.2253H118.193C122.001 14.2253 125.59 12.7854 128.346 10.1609H132.926C132.422 14.7269 128.567 18.2897 123.901 18.2897H90.2992C90.4986 17.3044 90.6038 16.2851 90.6038 15.2414C90.6038 14.8996 90.5885 14.5615 90.5664 14.2253ZM111.052 20.3219L132.616 89.4162H114.938L116.792 72.6091L120.578 68.7967C120.817 68.5565 120.92 68.212 120.854 67.8789L119.295 60.031C118.941 58.2476 117.657 56.7825 115.944 56.2075L113.203 55.2874C114.262 52.931 114.82 50.342 114.82 47.7564C114.82 44.955 112.557 42.6759 109.775 42.6759C106.993 42.6759 104.73 44.955 104.73 47.7564C104.73 50.342 105.287 52.9308 106.347 55.2874L103.606 56.2075C101.892 56.7825 100.608 58.2476 100.254 60.031L98.6954 67.8789C98.6292 68.212 98.7326 68.5565 98.9713 68.7967L102.757 72.6091L104.611 89.4162H86.9337L108.497 20.3219H111.052Z" fill="black"/>
</svg>
