<svg width="137" height="148" viewBox="0 0 137 148" fill="none" xmlns="http://www.w3.org/2000/svg">
<path d="M55.4643 125.135C86.0965 137.763 113.917 140.763 117.603 131.836C121.29 122.91 99.4457 105.436 68.8136 92.8078C38.1814 80.1797 10.3608 77.1793 6.6745 86.1061C2.98821 95.033 24.8322 112.507 55.4643 125.135Z" fill="#93D500"/>
<path d="M46.9905 16.2791L54.9938 23.4398H62.9971" stroke="black" stroke-width="4"/>
<path d="M101.013 19.8593L98.4033 22.1941C97.5078 22.9951 96.477 23.1664 95.5144 22.674L84.0831 16.8296C83.3681 16.464 82.6281 16.2782 81.8844 16.2781H69.2811C67.9635 16.2781 66.6664 16.8605 65.5047 17.973C64.343 19.0855 63.3528 20.6939 62.622 22.6556L52.9929 48.5024H62.8563C63.515 48.5024 64.1636 48.2116 64.7445 47.6553C65.3253 47.0991 65.8204 46.2945 66.1858 45.3136L67.8116 40.95C68.177 39.9691 68.6721 39.1645 69.2529 38.6082C69.8338 38.052 70.4824 37.7612 71.1412 37.7612H73.7904C74.5804 37.7611 75.3528 38.1799 76.0101 38.964L106.617 75.4767C107.183 76.1519 107.666 77.0267 108.037 78.0475C108.408 79.0682 108.658 80.2139 108.773 81.4137C108.888 82.6135 108.865 83.8423 108.705 85.0255C108.545 86.2088 108.252 87.3218 107.844 88.2956L107.721 88.5893C106.979 90.3609 105.896 91.577 104.681 92.0027C103.467 92.4285 102.207 92.0337 101.146 90.8944L85.0061 73.565" stroke="black" stroke-width="4" stroke-linecap="round" stroke-linejoin="round"/>
<path d="M107.015 73.5647L115.019 55.6628" stroke="black" stroke-width="4"/>
<path d="M40.9846 73.5588L32.9846 59.2432" stroke="black" stroke-width="4"/>
<path d="M52.9776 2L28.993 69.9844L15.002 55.6725" stroke="black" stroke-width="4" stroke-linecap="round" stroke-linejoin="round"/>
<path d="M57.0177 71.1096L57.2304 71.3605C59.0529 73.4937 59.5543 77.8347 58.3546 81.0929L50.4223 102.635C49.2226 105.893 46.7895 106.798 44.967 104.665L44.7543 104.414C42.9318 102.28 42.4304 97.94 43.6301 94.6819L51.5624 73.1402C52.7621 69.882 55.1952 68.9757 57.0177 71.1096Z" stroke="black" stroke-width="4" stroke-linecap="round" stroke-linejoin="round"/>
<path d="M61.6051 85.1033C63.4601 87.2751 63.9762 91.696 62.7623 95.0158L57.2843 109.995C56.0704 113.314 53.5997 114.238 51.7447 112.066C49.8896 109.894 49.3736 105.473 50.5875 102.153L56.0655 87.1741C57.2794 83.8543 59.7501 82.9307 61.6051 85.1033Z" stroke="black" stroke-width="4" stroke-linecap="round" stroke-linejoin="round"/>
<path d="M66.9414 96.1673C68.8022 98.3234 69.333 102.743 68.1314 106.077L64.566 115.97C63.3644 119.304 60.8991 120.253 59.0383 118.096C57.1775 115.94 56.6467 111.52 57.8483 108.186L61.4137 98.2932C62.6152 94.9591 65.0805 94.0105 66.9414 96.1673Z" stroke="black" stroke-width="4" stroke-linecap="round" stroke-linejoin="round"/>
<path d="M47.5766 71.0091C49.4374 73.1653 49.9682 77.585 48.7667 80.919L45.2012 90.8122C43.9997 94.1463 41.5343 95.094 39.6735 92.9372C37.8127 90.7811 37.282 86.3614 38.4835 83.0274L42.0489 73.1341C43.2505 69.8001 45.7158 68.8523 47.5766 71.0091Z" stroke="black" stroke-width="4" stroke-linecap="round" stroke-linejoin="round"/>
<path d="M97.0264 2L121.011 69.9844L135.002 55.6725" stroke="black" stroke-width="4" stroke-linecap="round" stroke-linejoin="round"/>
<path d="M102.019 93.4452L100.301 97.6794C99.4082 99.8805 98.0819 101.393 96.5899 101.913C95.0979 102.432 93.5513 101.919 92.2624 100.477L81.0046 87.8867" stroke="black" stroke-width="4" stroke-linecap="round" stroke-linejoin="round"/>
<path d="M96.0715 104.048L94.2998 108.416C93.3954 110.646 92.0628 112.198 90.5577 112.778C89.0525 113.357 87.4808 112.922 86.1441 111.555L77.0029 102.208" stroke="black" stroke-width="4" stroke-linecap="round" stroke-linejoin="round"/>
<path d="M86.6368 113.112L84.8825 117.91C84.2668 119.594 83.3477 120.85 82.2778 121.47C81.208 122.09 80.0518 122.037 79.0013 121.319L66.9988 113.112" stroke="black" stroke-width="4" stroke-linejoin="round"/>
<path d="M26.9805 48.5003C26.9805 49.4495 26.7698 50.3595 26.3947 51.0307C26.0196 51.7019 25.5109 52.0792 24.9805 52.0792C24.45 52.0792 23.9413 51.7019 23.5663 51.0307C23.1912 50.3595 22.9805 49.4495 22.9805 48.5003C22.9805 47.5511 23.1912 46.6411 23.5663 45.9699C23.9413 45.2987 24.45 44.9214 24.9805 44.9214C25.5109 44.9214 26.0196 45.2987 26.3947 45.9699C26.7698 46.6411 26.9805 47.5511 26.9805 48.5003Z" fill="black"/>
<path d="M127.022 48.5003C127.022 49.4495 126.811 50.3595 126.436 51.0307C126.061 51.7019 125.552 52.0792 125.022 52.0792C124.492 52.0792 123.983 51.7019 123.608 51.0307C123.233 50.3595 123.022 49.4495 123.022 48.5003C123.022 47.5511 123.233 46.6411 123.608 45.9699C123.983 45.2987 124.492 44.9214 125.022 44.9214C125.552 44.9214 126.061 45.2987 126.436 45.9699C126.811 46.6411 127.022 47.5511 127.022 48.5003Z" fill="black"/>
</svg>
