<svg width="135" height="146" viewBox="0 0 135 146" fill="none" xmlns="http://www.w3.org/2000/svg">
<path d="M55.0305 123.135C85.423 135.763 113.026 138.763 116.683 129.836C120.341 120.91 98.6678 103.436 68.2753 90.8078C37.8828 78.1797 10.2799 75.1793 6.62248 84.1061C2.96504 93.033 24.6381 110.507 55.0305 123.135Z" fill="#93D500"/>
<path d="M33.6341 11.6588C34.1776 11.449 34.6421 11.0938 34.969 10.6382C35.2958 10.1825 35.4702 9.64683 35.4702 9.09884C35.4702 8.55085 35.2958 8.01517 34.969 7.5595C34.6421 7.10384 34.1776 6.74865 33.6341 6.53885C30.4519 5.31164 29.7719 4.67824 28.4542 1.71446C28.23 1.20722 27.849 0.773454 27.3597 0.468208C26.8703 0.162963 26.2946 0 25.7057 0C25.1167 0 24.541 0.162963 24.0516 0.468208C23.5623 0.773454 23.1813 1.20722 22.9571 1.71446C21.6366 4.67824 20.9735 5.31164 17.7744 6.53885C17.2309 6.74865 16.7663 7.10384 16.4395 7.5595C16.1127 8.01517 15.9382 8.55085 15.9382 9.09884C15.9382 9.64683 16.1127 10.1825 16.4395 10.6382C16.7663 11.0938 17.2309 11.449 17.7744 11.6588C20.8914 12.8623 21.6649 13.5828 22.9571 16.4859C23.1823 16.9921 23.5637 17.4248 24.0529 17.7292C24.5421 18.0336 25.1173 18.1961 25.7057 18.1961C26.294 18.1961 26.8692 18.0336 27.3584 17.7292C27.8476 17.4248 28.229 16.9921 28.4542 16.4859C29.7435 13.5828 30.5199 12.8623 33.6341 11.6588ZM25.7 14.43C24.3399 11.6483 22.9627 10.3656 19.979 9.09884C23.0024 7.82677 24.337 6.57844 25.7057 3.77037C27.0714 6.57844 28.4089 7.82677 31.4267 9.09884C28.4542 10.3656 27.0629 11.6483 25.7057 14.43H25.7Z" fill="black"/>
<path d="M133.159 64.7589C129.977 63.5291 129.297 62.8983 127.979 59.9346C127.754 59.4283 127.372 58.9956 126.883 58.6912C126.394 58.3868 125.819 58.2244 125.23 58.2244C124.642 58.2244 124.067 58.3868 123.578 58.6912C123.088 58.9956 122.707 59.4283 122.482 59.9346C121.161 62.901 120.484 63.5317 117.299 64.7616C116.756 64.9714 116.291 65.3266 115.964 65.7822C115.637 66.2379 115.463 66.7736 115.463 67.3216C115.463 67.8696 115.637 68.4052 115.964 68.8609C116.291 69.3166 116.756 69.6718 117.299 69.8816C120.416 71.085 121.19 71.8055 122.482 74.706C122.707 75.2122 123.088 75.6449 123.578 75.9493C124.067 76.2537 124.642 76.4161 125.23 76.4161C125.819 76.4161 126.394 76.2537 126.883 75.9493C127.372 75.6449 127.754 75.2122 127.979 74.706C129.268 71.8029 130.045 71.0824 133.159 69.8789C133.703 69.6701 134.169 69.3152 134.497 68.8595C134.825 68.4037 134.999 67.8675 134.999 67.3189C134.999 66.7704 134.825 66.2342 134.497 65.7784C134.169 65.3226 133.703 64.9678 133.159 64.7589ZM125.225 72.6474C123.865 69.8684 122.487 68.5857 119.504 67.3189C122.521 66.0469 123.856 64.8012 125.225 61.9905C126.59 64.8012 127.928 66.0469 130.946 67.3189C127.968 68.5989 126.588 69.8684 125.23 72.6474H125.225Z" fill="black"/>
<path d="M111.964 86.9043H99.5779C99.0519 86.9043 98.5473 87.0989 98.1754 87.4454C97.8034 87.7918 97.5944 88.2617 97.5944 88.7517V92.2011L89.0171 94.3124L69.0884 86.3659C69.0261 86.3421 68.9637 86.321 68.8986 86.3026C67.6536 85.9382 66.3193 85.9336 65.0715 86.2895C63.8237 86.6454 62.721 87.3451 61.9086 88.2963C61.0962 89.2476 60.6123 90.4057 60.5207 91.6182C60.429 92.8306 60.7339 94.0405 61.3952 95.0883H60.2618C58.4041 95.091 56.5531 94.8809 54.7504 94.4628L40.1517 91.0689C37.9325 90.555 35.5879 90.8178 33.5629 91.8075C31.5379 92.7971 29.9735 94.4447 29.1664 96.4376C28.3594 98.4305 28.366 100.63 29.1849 102.619C30.0038 104.607 31.5781 106.247 33.609 107.226L48.5732 114.418C50.7285 115.454 53.1182 115.997 55.5438 116.001H97.5944V118.052C97.5944 118.542 97.8034 119.012 98.1754 119.358C98.5473 119.704 99.0519 119.899 99.5779 119.899H111.952C112.478 119.899 112.983 119.704 113.355 119.358C113.727 119.012 113.936 118.542 113.936 118.052V88.757C113.937 88.2679 113.731 87.7983 113.361 87.451C112.991 87.1037 112.489 86.9071 111.964 86.9043ZM97.5944 112.298H55.5438C53.7518 112.297 51.9859 111.898 50.3924 111.134L35.4281 103.937C34.2602 103.374 33.3549 102.432 32.884 101.288C32.4131 100.145 32.4094 98.8797 32.8736 97.7337C33.3378 96.5878 34.2376 95.6404 35.4021 95.0715C36.5667 94.5026 37.915 94.3518 39.1911 94.6476L53.7898 98.0442C55.9039 98.5351 58.0745 98.7832 60.2533 98.7832H67.0539L71.1513 100.631C71.4167 100.749 71.7069 100.812 72.0014 100.815C72.4508 100.816 72.8873 100.675 73.2394 100.415C73.5915 100.155 73.8383 99.7913 73.9394 99.3834C74.0405 98.9755 73.9898 98.5478 73.7958 98.1702C73.6017 97.7927 73.2758 97.4877 72.8713 97.3052L65.8525 94.1382C65.294 93.8834 64.8576 93.4438 64.6285 92.9052C64.3995 92.3667 64.3942 91.768 64.6138 91.2261C64.8334 90.6841 65.262 90.2379 65.8159 89.9746C66.3698 89.7113 67.0093 89.6498 67.6093 89.8021L88.0735 97.965C88.4799 98.1267 88.9327 98.1574 89.36 98.0521L97.5774 96.02L97.5944 112.298ZM109.969 116.196H101.561V90.5965H109.969V116.196Z" fill="black"/>
<path d="M32.6767 40.7557C32.6618 45.6995 33.6928 50.5975 35.711 55.1701C37.7291 59.7426 40.6947 63.9 44.4385 67.4047C48.1822 70.9095 52.6306 73.6929 57.5296 75.5959C62.4287 77.4989 67.6822 78.4843 72.9903 78.4957H73.1008C78.4992 78.5127 83.8457 77.5139 88.8196 75.5593C93.7935 73.6047 98.2922 70.7345 102.046 67.1209C106.827 62.5559 110.286 56.9347 112.097 50.7845L112.352 50.6842L112.207 50.3781C113.767 44.8183 113.939 38.9998 112.711 33.3684C111.484 27.737 108.888 22.4421 105.124 17.8892C101.359 13.3364 96.526 9.64656 90.994 7.1023C85.462 4.55805 79.3781 3.22694 73.2084 3.21094C72.5284 3.21094 71.8596 3.21094 71.2249 3.25052C67.2094 3.41846 63.2436 4.14616 59.4598 5.40936C53.7433 7.32962 48.5612 10.4183 44.2944 14.4485C36.8673 21.459 32.6949 30.9069 32.6767 40.7557ZM41.3616 57.5751C36.9371 50.2722 35.5618 41.7053 37.4995 33.5164C39.7663 37.7127 41.8575 42.421 41.5968 44.2341L41.5203 44.7619L41.8037 45.2264C41.9454 45.4534 45.2607 50.7264 52.7159 52.8325C52.9992 53.809 52.5572 56.9153 51.7326 59.6943L51.5201 60.4122L51.9791 61.0218C52.0953 61.1775 54.7702 64.7166 57.992 66.4453C58.3576 67.0945 58.9725 68.8628 56.7821 71.2116C50.3046 68.1898 44.9373 63.4434 41.3616 57.5751ZM103.151 21.6349C107.354 27.3132 109.588 34.0544 109.552 40.951C109.548 42.2431 109.466 43.5339 109.306 44.8173C108.334 43.2998 107.875 43.1494 107.495 43.0306C106.821 42.8169 103.432 41.3389 100.587 39.985C100.122 39.7633 99.8414 39.6314 100.714 37.5887C100.923 37.1452 101.088 36.685 101.207 36.2137C101.491 34.8941 100.496 33.4003 99.3484 31.6796C98.8752 30.9697 98.0846 29.782 98.0137 29.3888C97.5717 26.8578 93.8087 25.6623 89.8246 24.4008C84.1575 22.5982 79.9071 20.7693 77.2605 18.9615C77.1032 18.8637 76.9651 18.7414 76.8524 18.5999C76.9771 18.1275 78.3089 17.114 78.9578 16.6232C80.3038 15.5992 81.4655 14.715 81.4655 13.4219C81.4797 12.7779 82.4771 10.4554 83.5454 8.33355C91.5165 10.558 98.4333 15.2507 103.151 21.6349ZM47.1167 17.0402C50.9642 13.4057 55.6369 10.6201 60.7916 8.88778C64.2052 7.74773 67.7834 7.09205 71.4063 6.94271C71.9503 6.91632 72.5142 6.90577 73.0838 6.90577H73.1971C75.5414 6.91249 77.8796 7.12991 80.1791 7.555C79.295 9.34699 78.2267 11.7381 78.0822 13.1236C77.6823 13.5009 77.2563 13.8536 76.8071 14.1793C75.2855 15.3353 73.4068 16.7762 73.4465 18.7134C73.4776 19.7875 74.0869 20.735 75.2571 21.5294C78.2324 23.5536 82.6415 25.4881 88.7309 27.4094C90.5075 27.9716 94.1969 29.1434 94.6673 29.9483C94.8571 30.9565 95.5995 32.0728 96.4609 33.3607C96.9341 34.0733 97.7105 35.2398 97.8409 35.7175C97.7842 35.897 97.6595 36.1873 97.5575 36.4274C96.954 37.842 95.54 41.1489 99.0423 42.8169C101.377 43.9279 104.684 45.4006 106.036 45.91C106.475 46.48 107.37 48.1348 108.249 49.9109C107.139 53.6606 105.341 57.2035 102.936 60.3831C101.813 61.8654 100.567 63.2632 99.2095 64.5636C95.8243 67.823 91.7668 70.4118 87.2808 72.1746C82.7947 73.9374 77.9725 74.8379 73.1036 74.822H73.0016C68.556 74.8092 64.1505 74.0373 60.0039 72.5444C63.5544 68.0288 60.5706 64.334 60.5451 64.2891L60.3127 64.012L59.9784 63.851C57.9949 62.9035 56.0765 60.7975 55.2293 59.784C55.4418 58.9712 55.7705 57.6173 55.9858 56.2185C56.2154 54.6931 56.8359 50.6473 54.0023 49.8845C50.3873 48.9193 47.2244 46.8526 45.0198 44.015C45.0397 39.9903 40.7949 32.3737 38.8823 29.146C38.9333 29.014 38.9843 28.8821 39.0381 28.7475C40.8289 24.3649 43.5802 20.3778 47.1167 17.0402Z" fill="black"/>
<path d="M62.174 47.7944L70.3914 53.8196C71.1585 54.3826 72.1067 54.6887 73.0833 54.6887C74.0599 54.6887 75.0081 54.3826 75.7752 53.8196L83.9927 47.7865C85.1435 46.9482 86.0735 45.8762 86.7119 44.6523C87.3503 43.4284 87.6802 42.0848 87.6763 40.7241V39.4336C87.672 37.8597 87.1968 36.318 86.3039 34.9818C85.411 33.6455 84.1359 32.5675 82.6217 31.8688C81.1074 31.1701 79.4141 30.8783 77.7317 31.0263C76.0493 31.1742 74.4445 31.756 73.0975 32.7063C71.7499 31.7518 70.143 31.1667 68.4576 31.017C66.7722 30.8673 65.0755 31.159 63.5585 31.8591C62.0416 32.5592 60.7647 33.64 59.8717 34.9797C58.9787 36.3193 58.5052 37.8646 58.5045 39.4415V40.732C58.4985 42.0917 58.826 43.4347 59.462 44.6586C60.0979 45.8826 61.0255 46.9551 62.174 47.7944ZM62.4573 39.4415C62.4569 38.4567 62.7838 37.4959 63.3931 36.6911C64.0025 35.8864 64.8644 35.277 65.8605 34.9467C66.8566 34.6165 67.938 34.5815 68.9563 34.8466C69.9746 35.1118 70.8797 35.664 71.5475 36.4276C71.7335 36.6396 71.9678 36.8104 72.2335 36.9277C72.4991 37.045 72.7894 37.1059 73.0833 37.1059C73.3773 37.1059 73.6676 37.045 73.9332 36.9277C74.1988 36.8104 74.4331 36.6396 74.6191 36.4276C75.2869 35.664 76.1921 35.1118 77.2104 34.8466C78.2287 34.5815 79.3101 34.6165 80.3062 34.9467C81.3023 35.277 82.1642 35.8864 82.7735 36.6911C83.3829 37.4959 83.7098 38.4567 83.7093 39.4415V40.732C83.711 41.5335 83.5166 42.3248 83.1411 43.046C82.7655 43.7671 82.2185 44.3991 81.5416 44.894L73.3383 50.9166C73.2696 50.9666 73.1848 50.9938 73.0975 50.9938C73.0102 50.9938 72.9254 50.9666 72.8566 50.9166L64.6392 44.8834C63.9623 44.3885 63.4154 43.7565 63.0398 43.0354C62.6642 42.3143 62.4698 41.523 62.4715 40.7215L62.4573 39.4415Z" fill="black"/>
</svg>
