<svg width="135" height="146" viewBox="0 0 135 146" fill="none" xmlns="http://www.w3.org/2000/svg">
<path d="M55.4643 123.135C86.0965 135.763 113.917 138.763 117.603 129.836C121.29 120.91 99.4457 103.436 68.8136 90.8078C38.1814 78.1797 10.3608 75.1793 6.6745 84.1061C2.98821 93.033 24.8322 110.507 55.4643 123.135Z" fill="#93D500"/>
<path d="M132.571 65.1025C128.194 60.3996 124.848 54.8354 122.745 48.7657C122.713 41.9555 121.261 35.2267 118.482 29.0088C115.704 22.7909 111.659 17.2204 106.606 12.6529C101.553 8.08536 95.6032 4.62114 89.1361 2.48132C82.669 0.34149 75.8266 -0.426945 69.0458 0.225054C62.265 0.877054 55.6946 2.93517 49.754 6.26804C43.8133 9.60091 38.633 14.1353 34.5435 19.5819C30.454 25.0285 27.5453 31.2676 26.0029 37.901C24.4605 44.5344 24.3183 51.4165 25.5854 58.1079H16.8184C16.5796 58.1079 16.3431 58.1549 16.1224 58.2463C15.9018 58.3377 15.7013 58.4716 15.5324 58.6404C15.3636 58.8093 15.2296 59.0097 15.1382 59.2303C15.0468 59.4509 14.9998 59.6873 14.9998 59.9261C14.9998 60.1648 15.0468 60.4013 15.1382 60.6218C15.2296 60.8424 15.3636 61.0429 15.5324 61.2117C15.7013 61.3805 15.9018 61.5145 16.1224 61.6058C16.3431 61.6972 16.5796 61.7442 16.8184 61.7442H34.3845V92.0221H16.8184C16.3361 92.0221 15.8735 92.2137 15.5324 92.5546C15.1914 92.8956 14.9998 93.3581 14.9998 93.8403C14.9998 94.3225 15.1914 94.785 15.5324 95.1259C15.8735 95.4669 16.3361 95.6584 16.8184 95.6584H43.7453C45.5021 103.008 46.4297 110.53 46.5107 118.086C46.5408 118.551 46.7481 118.986 47.0897 119.302C47.4313 119.619 47.8813 119.792 48.347 119.787C48.8126 119.781 49.2584 119.597 49.5925 119.273C49.9266 118.949 50.1235 118.508 50.1427 118.043C50.062 110.51 49.1853 103.007 47.527 95.6584H81.3648C82.7229 95.6517 84.0616 95.3352 85.279 94.7331C86.4963 94.131 87.5602 93.2592 88.3896 92.184C89.2191 91.1089 89.7922 89.8586 90.0653 88.5286C90.3385 87.1986 90.3045 85.8237 89.966 84.5088C91.1249 84.0268 92.1602 83.2897 92.9948 82.3525C93.8295 81.4153 94.4421 80.302 94.787 79.0954C95.1319 77.8888 95.2002 76.62 94.987 75.3834C94.7737 74.1468 94.2843 72.9742 93.5552 71.9527C94.3812 71.2052 95.0381 70.29 95.4818 69.2682C95.9256 68.2465 96.146 67.1418 96.1282 66.028C96.1105 64.9142 95.8551 63.8171 95.3791 62.81C94.903 61.8028 94.2174 60.909 93.368 60.1881C94.4334 59.025 95.1534 57.588 95.447 56.0384C95.7406 54.4888 95.5962 52.888 95.03 51.416C94.4638 49.9439 93.4982 48.6588 92.2418 47.7051C90.9853 46.7514 89.4878 46.1668 87.9173 46.0171H67.6446C70.9342 32.5359 65.5425 14.2312 49.9501 20.429C49.6205 20.6205 49.36 20.9115 49.2062 21.2603C49.0525 21.6091 49.0133 21.9977 49.0943 22.3701C50.1724 26.6319 50.5339 31.0432 50.1641 35.4235C47.8426 43.2951 37.4923 51.0919 34.7055 58.1079H29.2923C28.0175 51.8948 28.0603 45.4835 29.4178 39.288C30.7753 33.0924 33.4174 27.2504 37.1736 22.1391C40.9297 17.0277 45.7163 12.7607 51.2243 9.61359C56.7324 6.46646 62.8394 4.50915 69.151 3.86804C75.4627 3.22694 81.8387 3.91629 87.8673 5.89159C93.8959 7.86689 99.4432 11.0842 104.151 15.3359C108.859 19.5875 112.622 24.7789 115.198 30.5749C117.774 36.3708 119.106 42.6425 119.107 48.985C121.084 55.9294 124.761 62.272 129.805 67.4394C131.132 69.4126 132.56 71.0329 129.757 72.7869C126.608 74.5473 123.345 76.0962 119.99 77.4233C119.612 77.5715 119.294 77.8422 119.087 78.1921C118.881 78.542 118.797 78.951 118.851 79.3537C119.614 85.0608 119.678 90.8395 119.043 96.5622C118.508 99.2734 112.4 101.097 103.804 101.097C102.755 101.006 101.699 101.141 100.706 101.493C99.7139 101.845 98.8085 102.405 98.0512 103.137C97.2938 103.868 96.7021 104.753 96.3159 105.732C95.9297 106.712 95.7581 107.762 95.8124 108.813V118.081C95.8124 118.563 96.0041 119.025 96.3451 119.366C96.6862 119.707 97.1488 119.899 97.6311 119.899C98.1134 119.899 98.576 119.707 98.9171 119.366C99.2582 119.025 99.4498 118.563 99.4498 118.081V108.797C99.4097 108.227 99.4972 107.655 99.7059 107.123C99.9145 106.591 100.239 106.112 100.656 105.721C101.073 105.329 101.572 105.036 102.116 104.861C102.661 104.687 103.237 104.636 103.804 104.712C125.735 104.6 123.82 96.8831 122.616 80.2682C128.794 77.5142 139.931 74.0329 132.571 65.1025ZM38.0005 59.9261C40.3273 53.0758 51.5174 44.7657 53.6195 36.584C54.2315 32.1351 54.0139 27.6114 52.9777 23.2418C59.4553 21.5894 63.8308 25.7017 64.7455 34.8407C65.1205 39.0369 64.7179 43.2663 63.558 47.3165C63.4805 47.5875 63.4667 47.8727 63.5176 48.1499C63.5686 48.4271 63.683 48.6887 63.8518 48.9144C64.0206 49.1401 64.2393 49.3238 64.4908 49.451C64.7423 49.5783 65.0199 49.6457 65.3018 49.648H87.912C89.0345 49.7542 90.0757 50.2793 90.8282 51.1188C91.5806 51.9583 91.989 53.0504 91.9719 54.1774C92.0762 55.1207 91.8658 56.072 91.3734 56.8834C90.8811 57.6948 90.1343 58.3208 89.2492 58.664C88.7669 58.664 88.3043 58.8556 87.9632 59.1966C87.6222 59.5375 87.4306 60 87.4306 60.4822C87.4306 60.9644 87.6222 61.4269 87.9632 61.7678C88.3043 62.1088 88.7669 62.3004 89.2492 62.3004C90.1777 62.3988 91.0338 62.8474 91.643 63.5549C92.2522 64.2623 92.5688 65.1753 92.5282 66.1078C92.571 69.065 89.6237 69.6319 89.185 71.5837C89.2385 73.4607 91.7205 74.4286 91.5546 76.5463C91.5139 77.7649 91.0578 78.933 90.2621 79.8569C89.4663 80.7809 88.3785 81.4052 87.1792 81.6265C86.8966 81.6826 86.6316 81.8056 86.4064 81.9851C86.1812 82.1647 86.0023 82.3956 85.8847 82.6585C85.2749 84.0917 86.8689 85.3323 86.6443 86.8136C86.6084 88.1966 86.0378 89.5118 85.0523 90.4831C84.0668 91.4543 82.7432 92.006 81.3595 92.0221H38.0005V59.9261ZM24.6761 84.1505C24.7013 83.686 24.9036 83.2489 25.2414 82.929C25.5792 82.6092 26.0268 82.4309 26.4921 82.4309C26.9574 82.4309 27.4049 82.6092 27.7427 82.929C28.0805 83.2489 28.2828 83.686 28.3081 84.1505C28.2595 84.596 28.0481 85.0079 27.7145 85.3071C27.3808 85.6063 26.9483 85.7718 26.5001 85.7718C26.0519 85.7718 25.6194 85.6063 25.2858 85.3071C24.9521 85.0079 24.7407 84.596 24.6921 84.1505H24.6761Z" fill="black"/>
</svg>
