<svg width="179" height="170" viewBox="0 0 179 170" fill="none" xmlns="http://www.w3.org/2000/svg">
<path d="M55.4643 146.239C86.0965 158.877 113.917 161.88 117.603 152.946C121.29 144.012 99.4457 126.523 68.8136 113.884C38.1814 101.246 10.3608 98.2427 6.6745 107.177C2.98821 116.112 24.8322 133.6 55.4643 146.239Z" fill="#93D500"/>
<path d="M103.579 0.00199193C103.093 0.0210409 102.622 0.176857 102.22 0.451537C102.22 0.451537 85.0155 12.2244 67.3575 24.4492C58.5285 30.5616 49.5891 36.7876 42.6173 41.7188C39.1314 44.1844 36.138 46.3228 33.8891 47.972C31.6401 49.6213 30.3488 50.5374 29.4391 51.4472C28.9541 51.9321 28.6815 52.5898 28.6814 53.2757V59.4834C28.6815 60.1693 28.954 60.8271 29.4389 61.312C29.9239 61.797 30.5817 62.0695 31.2675 62.0696H176.092C176.778 62.0695 177.436 61.797 177.921 61.312C178.406 60.8271 178.678 60.1693 178.678 59.4834V54.3111C178.678 53.6252 178.406 52.9674 177.921 52.4825C177.436 51.9975 176.778 51.725 176.092 51.725C175.406 51.725 174.748 51.9975 174.263 52.4825C173.778 52.9674 173.506 53.6252 173.506 54.3111V56.8973H33.8537V54.5233C34.3384 54.1336 35.1773 53.4442 36.95 52.1442C39.1561 50.5264 42.13 48.3977 45.6025 45.9415C52.5474 41.0292 61.4808 34.8093 70.3022 28.7022C87.9452 16.4879 105.139 4.72475 105.139 4.72475C105.42 4.53318 105.66 4.28816 105.846 4.00369C106.032 3.71921 106.16 3.40088 106.223 3.06687C106.286 2.73286 106.283 2.38973 106.213 2.05711C106.143 1.72449 106.008 1.4089 105.816 1.12838C105.569 0.766439 105.234 0.473196 104.843 0.276171C104.452 0.0791448 104.017 -0.0152021 103.579 0.00199193Z" fill="black"/>
<path d="M103.714 0.00105247C103.288 -0.00421891 102.867 0.0958497 102.489 0.292357C102.111 0.488865 101.787 0.775723 101.547 1.12744C101.355 1.40796 101.22 1.72355 101.15 2.05617C101.081 2.38879 101.077 2.73192 101.14 3.06593C101.203 3.39994 101.331 3.71827 101.517 4.00274C101.703 4.28722 101.943 4.53224 102.224 4.7238C102.224 4.7238 119.418 16.4869 137.061 28.7012C145.882 34.8084 154.816 41.0282 161.761 45.9405C165.233 48.3967 168.207 50.5255 170.413 52.1432C172.619 53.761 174.272 55.1078 174.267 55.1032C174.752 55.588 175.41 55.8604 176.096 55.8604C176.781 55.8604 177.439 55.588 177.924 55.1032C178.409 54.6182 178.681 53.9605 178.681 53.2747C178.681 52.5889 178.409 51.9312 177.924 51.4462C177.014 50.5364 175.723 49.6203 173.474 47.9711C171.225 46.3218 168.232 44.1834 164.746 41.7178C157.774 36.7866 148.835 30.5606 140.006 24.4482C122.348 12.2234 105.143 0.450598 105.143 0.450598C104.722 0.162967 104.224 0.0065514 103.714 0.00105247Z" fill="black"/>
<path d="M49.3737 12.9343C48.6879 12.9344 48.0301 13.2069 47.5451 13.6919C47.0602 14.1769 46.7877 14.8346 46.7876 15.5205V38.7958C46.7876 39.4817 47.0601 40.1395 47.5451 40.6245C48.0301 41.1095 48.6879 41.382 49.3737 41.382C50.0596 41.382 50.7174 41.1095 51.2024 40.6245C51.6874 40.1395 51.9599 39.4817 51.9599 38.7958V18.1066H62.3045V28.4512C62.3045 29.1371 62.577 29.7949 63.062 30.2799C63.547 30.7649 64.2048 31.0374 64.8906 31.0374C65.5765 31.0374 66.2343 30.7649 66.7193 30.2799C67.2043 29.7949 67.4768 29.1371 67.4768 28.4512V15.5205C67.4767 14.8346 67.2042 14.1769 66.7193 13.6919C66.2343 13.2069 65.5765 12.9344 64.8906 12.9343H49.3737Z" fill="black"/>
<path d="M41.6128 56.8982C40.9269 56.8982 40.2691 57.1707 39.7841 57.6557C39.2991 58.1407 39.0266 58.7985 39.0266 59.4843V147.414C39.0267 148.099 39.2992 148.757 39.7842 149.242C40.2691 149.727 40.9269 150 41.6128 150H75.2327C75.9186 150 76.5764 149.727 77.0614 149.242C77.5464 148.757 77.8188 148.099 77.8188 147.414C77.8188 146.728 77.5464 146.07 77.0614 145.585C76.5764 145.1 75.9186 144.827 75.2327 144.827H44.1989V59.4843C44.1989 58.7985 43.9264 58.1407 43.4414 57.6557C42.9564 57.1707 42.2986 56.8982 41.6128 56.8982Z" fill="black"/>
<path d="M103.578 18.8818C103.091 18.9008 102.62 19.0566 102.219 19.3313C102.219 19.3313 95.4569 23.9559 88.5152 28.7617C85.0444 31.1646 81.5289 33.6123 78.7818 35.5554C77.4083 36.5269 76.2285 37.3729 75.3319 38.0304C74.4354 38.6878 74.0374 38.9158 73.4024 39.5508C72.9174 40.0357 72.6449 40.6934 72.6448 41.3793V43.8189C72.6448 44.5048 72.9172 45.1626 73.4022 45.6476C73.8872 46.1326 74.545 46.4051 75.2309 46.4051C75.9168 46.4051 76.5746 46.1326 77.0596 45.6476C77.5446 45.1626 77.8171 44.5048 77.8171 43.8189V42.637C78.0741 42.4322 78.0242 42.473 78.3929 42.2026C79.2466 41.5766 80.4069 40.7401 81.767 39.7781C84.4873 37.854 87.9968 35.4123 91.46 33.0147C98.3866 28.2194 105.138 23.5995 105.138 23.5995C105.419 23.4079 105.659 23.1629 105.845 22.8784C106.031 22.5939 106.159 22.2756 106.222 21.9416C106.285 21.6076 106.281 21.2645 106.212 20.9318C106.142 20.5992 106.007 20.2836 105.815 20.0031C105.568 19.6421 105.232 19.3498 104.841 19.1537C104.45 18.9576 104.015 18.864 103.578 18.8818Z" fill="black"/>
<path d="M103.714 18.885C103.288 18.8792 102.868 18.9785 102.49 19.1741C102.112 19.3697 101.788 19.6556 101.547 20.0063C101.355 20.2869 101.22 20.6025 101.15 20.9351C101.081 21.2677 101.077 21.6108 101.14 21.9448C101.203 22.2788 101.331 22.5972 101.517 22.8816C101.703 23.1661 101.943 23.4111 102.224 23.6027C102.224 23.6027 108.975 28.2226 115.902 33.0179C119.365 35.4156 122.875 37.8572 125.595 39.7813C126.955 40.7433 128.115 41.5798 128.969 42.2058C129.338 42.4762 129.288 42.4354 129.545 42.6402V43.8221C129.545 44.508 129.817 45.1658 130.302 45.6508C130.787 46.1358 131.445 46.4083 132.131 46.4083C132.817 46.4083 133.475 46.1358 133.96 45.6508C134.445 45.1658 134.717 44.508 134.717 43.8221V41.3825C134.717 40.6966 134.445 40.0389 133.96 39.554C133.325 38.919 132.927 38.6911 132.03 38.0336C131.134 37.3762 129.954 36.5301 128.58 35.5586C125.833 33.6156 122.318 31.1678 118.847 28.7649C111.905 23.9591 105.143 19.3346 105.143 19.3346C104.722 19.0469 104.224 18.8905 103.714 18.885Z" fill="black"/>
<path d="M75.2309 41.2346C74.545 41.2346 73.8872 41.5071 73.4022 41.9921C72.9172 42.4771 72.6448 43.1349 72.6448 43.8208C72.6448 44.5067 72.9172 45.1645 73.4022 45.6495C73.8872 46.1345 74.545 46.4069 75.2309 46.4069H132.126C132.812 46.4069 133.47 46.1345 133.955 45.6495C134.44 45.1645 134.712 44.5067 134.712 43.8208C134.712 43.1349 134.44 42.4771 133.955 41.9921C133.47 41.5071 132.812 41.2346 132.126 41.2346H75.2309Z" fill="black"/>
<path d="M103.682 20.6907C102.996 20.6907 102.339 20.9631 101.854 21.4481C101.369 21.9331 101.096 22.5909 101.096 23.2768V43.966C101.096 44.6519 101.369 45.3097 101.854 45.7947C102.339 46.2797 102.996 46.5522 103.682 46.5522C104.368 46.5522 105.026 46.2797 105.511 45.7947C105.996 45.3097 106.268 44.6519 106.268 43.966V23.2768C106.268 22.5909 105.996 21.9331 105.511 21.4481C105.026 20.9631 104.368 20.6907 103.682 20.6907Z" fill="black"/>
<path d="M165.746 56.8982C165.06 56.8982 164.402 57.1707 163.917 57.6557C163.432 58.1407 163.16 58.7985 163.16 59.4843V144.827H75.2309C74.545 144.827 73.8872 145.1 73.4022 145.585C72.9172 146.07 72.6448 146.728 72.6448 147.414C72.6448 148.099 72.9172 148.757 73.4022 149.242C73.8872 149.727 74.545 150 75.2309 150H165.746C166.432 150 167.09 149.727 167.575 149.242C168.06 148.757 168.332 148.099 168.332 147.414V59.4843C168.332 58.7985 168.06 58.1407 167.575 57.6557C167.09 57.1707 166.432 56.8982 165.746 56.8982Z" fill="black"/>
<path d="M88.1599 90.5171C87.474 90.5172 86.8163 90.7897 86.3313 91.2746C85.8463 91.7596 85.5738 92.4174 85.5737 93.1032V147.412C85.5737 148.098 85.8462 148.756 86.3312 149.241C86.8162 149.726 87.474 149.999 88.1599 149.999C88.8458 149.999 89.5036 149.726 89.9886 149.241C90.4736 148.756 90.746 148.098 90.746 147.412V95.6894H103.677C104.363 95.6894 105.02 95.4169 105.505 94.9319C105.99 94.4469 106.263 93.7891 106.263 93.1032C106.263 92.4174 105.99 91.7596 105.505 91.2746C105.02 90.7896 104.363 90.5171 103.677 90.5171H88.1599Z" fill="black"/>
<path d="M103.682 90.5171C102.996 90.5171 102.339 90.7896 101.854 91.2746C101.369 91.7596 101.096 92.4174 101.096 93.1032C101.096 93.7891 101.369 94.4469 101.854 94.9319C102.339 95.4169 102.996 95.6894 103.682 95.6894H116.613V147.412C116.613 148.098 116.886 148.756 117.371 149.241C117.856 149.726 118.513 149.999 119.199 149.999C119.885 149.999 120.543 149.726 121.028 149.241C121.513 148.756 121.785 148.098 121.785 147.412V93.1032C121.785 92.4174 121.513 91.7596 121.028 91.2746C120.543 90.7897 119.885 90.5172 119.199 90.5171H103.682Z" fill="black"/>
<path d="M114.028 116.38C113.342 116.38 112.684 116.652 112.199 117.137C111.714 117.622 111.441 118.28 111.441 118.966C111.441 119.652 111.714 120.309 112.199 120.794C112.684 121.279 113.342 121.552 114.028 121.552H119.2C119.886 121.552 120.544 121.279 121.029 120.794C121.514 120.309 121.786 119.652 121.786 118.966C121.786 118.28 121.514 117.622 121.029 117.137C120.544 116.652 119.886 116.38 119.2 116.38H114.028Z" fill="black"/>
<path d="M51.958 80.1724C51.2721 80.1724 50.6144 80.4449 50.1294 80.9299C49.6444 81.4149 49.3719 82.0726 49.3718 82.7585V108.62C49.3719 109.306 49.6444 109.964 50.1294 110.449C50.6144 110.934 51.2721 111.206 51.958 111.206H77.8195C78.5053 111.206 79.1631 110.934 79.6481 110.449C80.1331 109.964 80.4055 109.306 80.4056 108.62V82.7585C80.4055 82.0726 80.1331 81.4149 79.6481 80.9299C79.1631 80.4449 78.5053 80.1724 77.8195 80.1724H51.958ZM54.5441 85.3447H75.2333V106.034H54.5441V85.3447Z" fill="black"/>
<path d="M64.8869 80.1724C64.201 80.1724 63.5432 80.4448 63.0582 80.9298C62.5732 81.4148 62.3008 82.0726 62.3008 82.7585V106.034C62.3008 106.72 62.5732 107.378 63.0582 107.863C63.5432 108.348 64.201 108.62 64.8869 108.62C65.5728 108.62 66.2306 108.348 66.7156 107.863C67.2006 107.378 67.4731 106.72 67.4731 106.034V82.7585C67.4731 82.0726 67.2006 81.4148 66.7156 80.9298C66.2306 80.4448 65.5728 80.1724 64.8869 80.1724Z" fill="black"/>
<path d="M51.958 93.1056C51.2721 93.1056 50.6143 93.3781 50.1293 93.8631C49.6443 94.3481 49.3718 95.0059 49.3718 95.6917C49.3718 96.3776 49.6443 97.0354 50.1293 97.5204C50.6143 98.0054 51.2721 98.2779 51.958 98.2779H77.8195C78.5054 98.2779 79.1632 98.0054 79.6482 97.5204C80.1331 97.0354 80.4056 96.3776 80.4056 95.6917C80.4056 95.0059 80.1331 94.3481 79.6482 93.8631C79.1632 93.3781 78.5054 93.1056 77.8195 93.1056H51.958Z" fill="black"/>
<path d="M129.54 80.1724C128.855 80.1724 128.197 80.4449 127.712 80.9299C127.227 81.4149 126.954 82.0726 126.954 82.7585V108.62C126.954 109.306 127.227 109.964 127.712 110.449C128.197 110.934 128.855 111.206 129.54 111.206H155.402C156.088 111.206 156.746 110.934 157.231 110.449C157.716 109.964 157.988 109.306 157.988 108.62V82.7585C157.988 82.0726 157.716 81.4149 157.231 80.9299C156.746 80.4449 156.088 80.1724 155.402 80.1724H129.54ZM132.127 85.3447H152.816V106.034H132.127V85.3447Z" fill="black"/>
<path d="M142.469 80.1724C141.784 80.1724 141.126 80.4448 140.641 80.9298C140.156 81.4148 139.883 82.0726 139.883 82.7585V106.034C139.883 106.72 140.156 107.378 140.641 107.863C141.126 108.348 141.784 108.62 142.469 108.62C143.155 108.62 143.813 108.348 144.298 107.863C144.783 107.378 145.056 106.72 145.056 106.034V82.7585C145.056 82.0726 144.783 81.4148 144.298 80.9298C143.813 80.4448 143.155 80.1724 142.469 80.1724Z" fill="black"/>
<path d="M129.54 93.1056C128.855 93.1056 128.197 93.3781 127.712 93.8631C127.227 94.3481 126.954 95.0059 126.954 95.6917C126.954 96.3776 127.227 97.0354 127.712 97.5204C128.197 98.0054 128.855 98.2779 129.54 98.2779H155.402C156.088 98.2779 156.746 98.0054 157.231 97.5204C157.716 97.0354 157.988 96.3776 157.988 95.6917C157.988 95.0059 157.716 94.3481 157.231 93.8631C156.746 93.3781 156.088 93.1056 155.402 93.1056H129.54Z" fill="black"/>
<path d="M41.6128 129.309C40.9269 129.309 40.2691 129.581 39.7841 130.066C39.2991 130.551 39.0266 131.209 39.0266 131.895C39.0266 132.581 39.2991 133.238 39.7841 133.723C40.2691 134.208 40.9269 134.481 41.6128 134.481H88.1634C88.8493 134.481 89.5071 134.208 89.9921 133.723C90.4771 133.238 90.7496 132.581 90.7496 131.895C90.7496 131.209 90.4771 130.551 89.9921 130.066C89.5071 129.581 88.8493 129.309 88.1634 129.309H41.6128Z" fill="black"/>
<path d="M119.196 129.309C118.51 129.309 117.852 129.581 117.367 130.066C116.882 130.551 116.609 131.209 116.609 131.895C116.609 132.581 116.882 133.238 117.367 133.723C117.852 134.208 118.51 134.481 119.196 134.481H165.746C166.432 134.481 167.09 134.208 167.575 133.723C168.06 133.238 168.332 132.581 168.332 131.895C168.332 131.209 168.06 130.551 167.575 130.066C167.09 129.581 166.432 129.309 165.746 129.309H119.196Z" fill="black"/>
</svg>
