<svg width="179" height="170" viewBox="0 0 179 170" fill="none" xmlns="http://www.w3.org/2000/svg">
<path d="M55.4643 146.239C86.0965 158.877 113.917 161.88 117.603 152.946C121.29 144.012 99.4457 126.523 68.8136 113.884C38.1814 101.246 10.3608 98.2427 6.6745 107.177C2.98821 116.112 24.8322 133.6 55.4643 146.239Z" fill="#93D500"/>
<path d="M176.12 117.836H171.078L107.332 18.8831L115.976 5.49266C116.876 4.13092 116.696 1.86136 115.615 0.726575C114.535 -0.408207 112.734 -0.181249 111.834 1.18049L103.911 13.4361L95.9875 1.18049C95.0872 -0.181249 93.2864 -0.408207 92.206 0.726575C91.1256 1.86136 90.9455 4.13092 91.8459 5.49266L100.489 18.8831L36.7438 117.836H31.7018C30.2612 117.836 29.0007 119.425 29.0007 121.24V146.66C29.0007 148.475 30.2612 150.064 31.7018 150.064H38.0043H44.667H52.7702H87.7042H120.477H155.051H163.515H169.637H176.3C177.74 150.064 179.001 148.475 179.001 146.66V121.24C178.821 119.198 177.56 117.836 176.12 117.836ZM160.453 121.24V143.255H156.312L116.876 44.5292L163.875 117.609H163.154C161.714 117.836 160.453 119.198 160.453 121.24ZM90.2252 45.437L50.9695 143.255H47.188V121.24C47.188 119.425 45.9275 117.836 44.4869 117.836H43.5866L90.2252 45.437ZM38.0043 143.255H34.4029V124.645H41.7858V143.255H38.0043ZM90.2252 143.255V120.786C90.2252 111.254 96.3477 103.538 103.911 103.538C111.474 103.538 117.596 111.254 117.596 120.786V143.255H90.2252ZM122.998 143.255V120.786C122.998 107.623 114.535 96.7291 103.911 96.7291C93.2864 96.7291 84.8231 107.396 84.8231 120.786V143.255H57.092L103.731 26.5996L150.369 143.255H122.998ZM173.418 143.255H169.457H166.036V124.645H173.418V143.255Z" fill="#202E31"/>
</svg>
