<svg width="179" height="170" viewBox="0 0 179 170" fill="none" xmlns="http://www.w3.org/2000/svg">
<path d="M55.4643 146.239C86.0965 158.877 113.917 161.88 117.603 152.946C121.29 144.012 99.4457 126.523 68.8136 113.884C38.1814 101.246 10.3608 98.2427 6.6745 107.177C2.98821 116.112 24.8322 133.6 55.4643 146.239Z" fill="#93D500"/>
<path d="M37.6818 112.911C37.6619 112.933 37.6503 112.961 37.6488 112.991L37.6251 113.024C34.9872 117.996 32.9278 123.256 31.4875 128.7L31.4783 128.733C31.4193 128.928 31.3742 129.11 31.3292 129.305L31.3176 129.362C29.7816 135.359 29.004 141.526 29.0032 147.718C29.0032 148.323 29.2429 148.904 29.6697 149.332C30.0965 149.76 30.6753 150 31.2789 150H174.245C174.848 149.999 175.427 149.758 175.854 149.33C176.281 148.903 176.522 148.323 176.524 147.718C176.522 141.53 175.744 135.367 174.211 129.373V129.362C174.154 129.134 174.097 128.916 174.041 128.7L174.027 128.677C172.572 123.145 170.476 117.803 167.781 112.761C167.732 112.695 167.7 112.626 167.655 112.557C165.686 108.878 163.4 105.379 160.822 102.099V102.09L160.7 101.936C160.704 101.887 160.711 101.839 160.711 101.79V101.769C160.711 101.65 160.7 101.531 160.679 101.414L160.666 101.312C160.666 101.288 160.655 101.279 160.643 101.255L154.654 67.3952L169.319 82.0991C169.752 82.5221 170.332 82.7595 170.937 82.7608C171.538 82.7616 172.115 82.5237 172.542 82.0991L178.336 76.287C178.763 75.8583 179.003 75.2773 179.003 74.6714C179.003 74.0656 178.763 73.4845 178.336 73.0558L150.759 45.3951L148.674 33.6384L160.868 21.4113L172.54 9.71149C172.752 9.49997 172.921 9.24832 173.036 8.97107C173.152 8.69381 173.211 8.39644 173.211 8.09609C173.211 7.79574 173.152 7.49836 173.036 7.22111C172.921 6.94385 172.752 6.6922 172.54 6.48068L166.746 0.666679C166.318 0.239693 165.739 0 165.135 0C164.531 0 163.952 0.239693 163.524 0.666679L142.196 22.0507C140.007 20.6143 137.446 19.8519 134.829 19.8578C134.753 19.8559 134.677 19.8599 134.602 19.87C131.928 19.9129 129.327 20.746 127.123 22.2649C124.919 23.7837 123.211 25.9208 122.214 28.4084L112.024 18.1917L100.342 6.47922C99.9073 6.06587 99.3307 5.83548 98.7313 5.83548C98.1319 5.83548 97.5553 6.06587 97.1202 6.47922L91.323 12.2889C90.8971 12.7181 90.658 13.299 90.658 13.9045C90.658 14.51 90.8971 15.0909 91.323 15.5202L119.23 43.5129L116.396 59.5514L113.539 62.4157L105.491 70.4745V69.7774C105.491 69.7346 105.456 69.6944 105.454 69.6516C105.443 69.2701 105.333 68.8978 105.137 68.571L105.125 68.5331L105.103 68.4996L105.097 68.4952L92.1645 48.6948C92.1287 48.64 92.0677 48.6162 92.027 48.5642C91.8582 48.3299 91.6418 48.1341 91.392 47.9898C91.1422 47.8456 90.8647 47.7561 90.5778 47.7273C90.5023 47.7156 90.4408 47.668 90.3629 47.6632L90.3144 47.6729L90.2602 47.6612H61.376C61.0181 47.6611 60.6653 47.7455 60.3461 47.9077C60.0269 48.07 59.7504 48.3053 59.539 48.5948L45.0182 68.4312C44.9778 68.5062 44.9422 68.5837 44.9117 68.6632C44.8321 68.7949 44.7672 68.9349 44.718 69.0807C44.6723 69.2281 44.6415 69.3796 44.626 69.5332C44.605 69.6152 44.5888 69.6983 44.5776 69.7822V101.783C44.5915 101.915 44.6177 102.045 44.656 102.172C42.1039 105.432 39.836 108.907 37.8774 112.557C37.7964 112.665 37.7306 112.784 37.6818 112.911ZM36.6228 127.306C37.5425 124.258 38.6843 121.283 40.0388 118.403H62.6857C70.9548 118.396 78.8926 121.661 84.7744 127.489C81.9581 131.029 79.8297 135.068 78.4998 139.396C76.6854 136.402 74.1326 133.927 71.0875 132.21C68.0424 130.492 64.6074 129.59 61.1135 129.589H35.9629C36.1692 128.823 36.3837 128.063 36.6228 127.306ZM33.5942 145.436C33.7202 141.646 34.1574 137.874 34.9016 134.157H61.1135C64.5078 134.16 67.8109 135.258 70.5343 137.289C73.2576 139.321 75.2563 142.177 76.2347 145.436H33.5942ZM81.8024 145.436C82.5654 140.185 84.6419 135.213 87.8383 130.983C91.0472 135.206 93.1279 140.181 93.8834 145.436H81.8024ZM99.4511 145.436C100.428 142.176 102.427 139.319 105.15 137.287C107.874 135.256 111.178 134.158 114.573 134.157H170.635C171.37 137.875 171.804 141.647 171.933 145.436H99.4511ZM169.566 129.589H114.573C111.077 129.591 107.641 130.494 104.595 132.211C101.548 133.928 98.9926 136.402 97.1744 139.395C95.8514 135.069 93.7223 131.033 90.8998 127.501C96.7795 121.669 104.718 118.399 112.988 118.403H165.488C166.841 121.284 167.982 124.26 168.904 127.307C169.143 128.063 169.361 128.823 169.566 129.589ZM155.724 99.5081H142.787V85.1925C142.785 83.3377 142.049 81.5594 140.741 80.2476C139.434 78.9358 137.66 78.1977 135.81 78.195H133.85C132.002 78.1995 130.23 78.9385 128.924 80.2502C127.619 81.5619 126.884 83.3391 126.883 85.1925V99.5081H113.949L118.126 75.8885L135.011 58.9708C135.434 58.5376 135.672 57.9557 135.673 57.3493C135.674 57.0505 135.616 56.7545 135.502 56.4783C135.389 56.202 135.222 55.951 135.011 55.7395L130.822 51.5368L134.829 47.519L140.454 53.1466L149.04 61.7559V61.7676L155.724 99.5081ZM138.234 99.5081H131.437V85.1925C131.436 84.5496 131.69 83.9327 132.143 83.477C132.595 83.0213 133.209 82.7638 133.85 82.7608H135.81C136.452 82.7634 137.068 83.0204 137.522 83.476C137.976 83.9315 138.232 84.5486 138.234 85.1925V99.5081ZM91.2736 99.5081H86.4908V81.184H91.2736V99.5081ZM93.5493 76.6186H84.2142C83.6111 76.6203 83.0333 76.8612 82.6068 77.2888C82.1804 77.7163 81.9401 78.2957 81.9385 78.9003V99.5071H76.8308V72.0649H100.934V99.5081H95.8269V78.9013C95.827 78.6015 95.7682 78.3046 95.6539 78.0276C95.5395 77.7506 95.3718 77.4989 95.1604 77.2869C94.949 77.0749 94.6979 76.9068 94.4217 76.7921C94.1454 76.6775 93.8483 76.6185 93.5493 76.6186ZM98.9988 67.4971H79.2706L90.082 53.8432L98.9988 67.4971ZM72.2717 99.5032H49.1275V72.0673H72.2717V99.5032ZM105.487 88.3549C105.729 88.2481 105.948 88.097 106.135 87.9092L112.499 81.5277L109.312 99.5081H105.487V88.3549ZM152.147 53.2505L173.505 74.668L170.933 77.259L156.133 62.4171L147.65 53.9122L145.281 51.5368L146.934 49.8823L147.854 48.9599L152.147 53.2505ZM145.965 44.3921L142.059 48.306L138.051 44.2877L144.747 37.5746L145.965 44.3921ZM165.129 5.50585L167.713 8.09876L157.649 18.1917L147.456 28.4084H147.444L143.78 32.0849V32.0966L142.061 33.8083L139.489 31.229L142.312 28.3963L145.57 25.132L165.129 5.50585ZM125.949 31.7198C126.363 29.6636 127.474 27.814 129.092 26.4844C130.71 25.1547 132.737 24.4267 134.829 24.4237C136.231 24.4212 137.613 24.7541 138.86 25.3946L134.659 29.6071C134.445 29.8182 134.276 30.0697 134.16 30.347C134.045 30.6243 133.985 30.9219 133.985 31.2225C133.985 31.523 134.045 31.8206 134.16 32.0979C134.276 32.3752 134.445 32.6268 134.659 32.8379L138.848 37.0387L134.83 41.0681L129.217 35.4293L125.88 32.0849L125.949 31.7198ZM96.1508 13.9103L98.7374 11.3194L108.802 21.4104L120.984 33.6258V33.6384L124.377 37.0401L121.805 39.6189L120.211 38.0212L96.1508 13.9103ZM123.75 44.129L127.598 40.2699L131.617 44.2877L125.993 49.9274L122.019 53.9122L123.75 44.129ZM115.007 67.3952L116.747 65.6475L120.631 61.7554L127.598 54.7647L130.185 57.3464L119.515 68.0418L118.99 68.5705L105.488 82.1083V76.9386L115.007 67.3952ZM62.5274 52.232H85.5428L73.4516 67.502H51.3494L62.5274 52.232ZM43.6925 111.553C45.2755 108.944 47.033 106.447 48.9527 104.076H156.575C158.494 106.447 160.252 108.945 161.835 111.553C162.301 112.307 162.746 113.07 163.166 113.834H112.988C103.59 113.83 94.5625 117.515 87.8383 124.099C81.116 117.51 72.0862 113.825 62.6857 113.834H42.3629C42.7836 113.061 43.2368 112.307 43.6925 111.553Z" fill="black"/>
<path d="M53.6709 92.5907H67.9835C68.2829 92.5913 68.5793 92.5326 68.8559 92.418C69.1326 92.3033 69.3838 92.135 69.5953 91.9226C69.8068 91.7103 69.9743 91.4581 70.0883 91.1806C70.2022 90.903 70.2603 90.6057 70.2592 90.3056V81.3113C70.26 81.0114 70.2017 80.7144 70.0876 80.4372C69.9735 80.16 69.8059 79.9082 69.5944 79.6961C69.3829 79.4841 69.1318 79.3161 68.8553 79.2017C68.5789 79.0873 68.2826 79.0288 67.9835 79.0295H53.6709C53.0674 79.0295 52.4886 79.2699 52.0618 79.6978C51.635 80.1257 51.3953 80.7061 51.3953 81.3113V90.3075C51.3951 90.6073 51.4538 90.9042 51.5681 91.1812C51.6824 91.4581 51.8499 91.7099 52.0613 91.9219C52.2726 92.1339 52.5236 92.3021 52.7997 92.4169C53.0759 92.5316 53.372 92.5907 53.6709 92.5907ZM55.9466 83.5944H65.7045V88.0224H55.9476L55.9466 83.5944Z" fill="black"/>
</svg>
