<svg width="31" height="29" viewBox="0 0 31 29" fill="none" xmlns="http://www.w3.org/2000/svg">
<path d="M15.3 28.764C23.75 28.764 30.6 26.725 30.6 24.2099C30.6 21.6947 23.75 19.6558 15.3 19.6558C6.85004 19.6558 0 21.6947 0 24.2099C0 26.725 6.85004 28.764 15.3 28.764Z" fill="#93D500"/>
<path fill-rule="evenodd" clip-rule="evenodd" d="M13.9982 8.52919C14.0431 8.43945 14.1104 8.34972 14.1777 8.25998C14.4245 7.8786 14.6937 7.49722 14.9405 7.11584C15.5013 6.28578 16.0397 5.45572 16.623 4.6481C16.6679 4.60323 16.6903 4.55836 16.7127 4.51349C16.8922 4.19942 16.9819 3.75073 17.0717 3.41422C17.3185 2.42712 17.5877 1.52976 18.3056 0.789438C18.7991 0.273454 19.4497 -0.0406226 20.1451 0.00424554C21.3341 0.0939818 22.1418 1.08108 22.6802 2.06818C22.9943 2.65147 23.3308 3.48153 23.4429 4.13211C23.6448 5.23138 23.5102 6.57743 23.1513 7.8113C24.3179 7.96834 25.462 8.25998 26.4491 8.8657C28.4009 10.0547 28.5579 12.0065 27.5259 13.6217C27.7951 14.1826 27.9297 14.8107 27.9073 15.394C27.8849 15.7978 27.8176 16.1343 27.683 16.4708C28.3336 17.1439 28.6925 18.0188 28.4233 19.0732C27.9746 20.8904 26.3594 21.8775 24.7666 22.5954C21.4014 24.1209 17.296 23.4703 14.5366 21.0698C14.2674 21.4736 13.9309 21.8102 13.5047 22.0794C11.5305 23.4478 8.86083 22.9319 6.61743 22.8421C5.6079 22.7973 4.84515 22.0345 4.73298 21.1147C4.68811 20.9801 4.66567 20.8455 4.64324 20.7109C4.14969 17.3682 2.71391 12.1411 5.78737 9.60603C7.7167 8.03564 11.6202 7.13828 13.9982 8.52919Z" fill="#201E1E"/>
<path fill-rule="evenodd" clip-rule="evenodd" d="M14.1109 10.6356C12.7649 8.32486 8.34538 9.40169 6.7077 10.7477C4.30725 12.6995 5.69817 17.8818 6.07954 20.4841C6.10198 20.5963 6.14685 20.686 6.19171 20.7309C6.14685 21.0225 6.30388 21.3815 6.68526 21.3815C9.37735 21.4937 13.2136 22.3237 13.909 18.9137C14.2007 17.3882 14.3577 15.773 14.425 14.2026C14.4923 13.1706 14.6718 11.5778 14.1109 10.6356Z" fill="#FEFEFE"/>
<path fill-rule="evenodd" clip-rule="evenodd" d="M25.6632 16.8505C26.0894 16.4467 26.4259 15.9756 26.4484 15.3698C26.4708 14.7417 26.2016 13.9341 25.6632 13.5751C26.8073 12.5432 27.256 11.0625 25.6856 10.0978C24.362 9.29022 22.5224 9.15562 20.952 9.13318C21.8494 7.83201 22.2308 5.70077 22.0064 4.37717C21.8942 3.63684 20.6379 0.451208 19.3592 1.77482C18.3945 2.78435 18.5964 4.42203 17.8112 5.5213C17.228 6.30649 16.712 7.13655 16.1511 7.94418C15.8819 8.32556 15.6351 8.72937 15.3659 9.11075C15.2986 9.17805 15.2762 9.24535 15.2313 9.33509C15.1416 9.42483 15.0743 9.55943 15.0743 9.71647C15.0519 12.7226 14.7826 15.7064 14.6256 18.6901C14.6256 18.8023 14.648 18.8696 14.6705 18.9369C14.6705 19.049 14.6929 19.1612 14.8051 19.2734C17.0934 21.8757 21.0193 22.6833 24.1601 21.2476C25.2818 20.754 26.6951 20.0137 27.0092 18.7125C27.2335 17.7927 26.4708 17.2094 25.6632 16.8505Z" fill="#FEFEFE"/>
</svg>
