<svg width="30" height="31" viewBox="0 0 30 31" fill="none" xmlns="http://www.w3.org/2000/svg">
<path d="M29.1667 16.0416C29.1667 24.096 22.6377 30.6249 14.5833 30.6249C6.52925 30.6249 0 24.096 0 16.0416C0 7.9875 6.52925 1.45825 14.5833 1.45825C22.6377 1.45825 29.1667 7.9875 29.1667 16.0416Z" fill="#000F5E"/>
<path d="M29.1667 14.5833C29.1667 22.6377 22.6377 29.1667 14.5833 29.1667C6.52925 29.1667 0 22.6377 0 14.5833C0 6.52925 6.52925 0 14.5833 0C22.6377 0 29.1667 6.52925 29.1667 14.5833Z" fill="#001689"/>
<path d="M7.36523 10.7917L12.5215 16.0417L7.36523 21.1458L9.42761 23.1875L14.5835 18.0834L19.7402 23.1875L21.8023 21.1458L16.6456 16.0417L21.8023 10.7917L19.7402 8.75L14.5835 13.8542L9.42761 8.75L7.36523 10.7917Z" fill="#000F5E"/>
<path d="M7.36523 9.33345L12.5215 14.5834L7.36523 19.6876L9.42761 21.7293L14.5835 16.6251L19.7402 21.7293L21.8023 19.6876L16.6456 14.5834L21.8023 9.33345L19.7402 7.29175L14.5835 12.3959L9.42761 7.29175L7.36523 9.33345Z" fill="#ECF0F1"/>
</svg>
