<svg width="528" height="518" viewBox="0 0 528 518" fill="none" xmlns="http://www.w3.org/2000/svg">
<path d="M478 0H50C22.3858 0 0 22.3858 0 50V468C0 495.614 22.3858 518 50 518H478C505.614 518 528 495.614 528 468V50C528 22.3858 505.614 0 478 0Z" fill="#001689"/>
<path fill-rule="evenodd" clip-rule="evenodd" d="M353.2 302.21C365.64 317.89 372.19 338.46 369.57 360.49C365.31 396.31 336.17 425.07 300.31 428.9C253.08 433.94 213.21 397.04 213.21 350.9C213.21 342.23 214.44 334.31 216.72 327.07C225.94 297.69 254.28 278.51 285.08 278.51H408.51C408.51 167.06 318.14 76.74 206.74 76.74V159.5C191.53 167.8 176.47 179.1 167.14 190.86C154.55 206.76 146.25 217.53 137.46 240C124.32 273.83 123.83 312.44 134.89 347.8C147.53 388.19 177.51 422.51 214.25 439.85C250.94 457.13 293.06 458.37 329.8 441.82C335.28 439.35 339.92 436.88 344.71 433.57C351.28 429.08 358.54 423.1 363.67 416.78C365.5 414.51 367.22 412.83 369 410.41C384.56 389.47 388.06 365.18 383.07 344.29C378.73 326.31 368.06 310.85 353.2 302.21ZM325.25 192.88C337.89 191.4 347.77 200.68 349.1 211.79C350.53 224.23 341.4 234.21 330.43 235.54C317.84 237.07 307.62 227.79 306.38 216.73C305 204.04 314.34 194.16 325.25 192.88Z" fill="#93D500"/>
<path fill-rule="evenodd" clip-rule="evenodd" d="M353.209 302.23C341.929 295.67 328.079 291.81 312.969 295.04C298.079 298.23 287.29 307.92 281.49 320.31C265.66 325.32 254.1 340.18 254.1 357.62V382.16H263.37V403.34H279.409V382.16H307.01V403.34H323.05V382.16H332.32V357.62C332.32 341.52 322.46 327.62 308.49 321.63C319.27 309.4 340.09 314.65 352.54 329.14C362.97 341.28 365.819 358.68 362.399 374.02C360.459 382.75 356.939 394.43 349.959 403.4C362.489 389.5 370.12 371.09 370.12 350.9C370.12 332.51 363.799 315.6 353.209 302.23Z" fill="#009845"/>
<path fill-rule="evenodd" clip-rule="evenodd" d="M206.73 246.16L171.37 185.96C180.65 175.99 193.64 166.6 206.73 159.44" fill="#009845"/>
</svg>
