<svg width="30" height="30" viewBox="0 0 30 30" fill="none" xmlns="http://www.w3.org/2000/svg">
<path fill-rule="evenodd" clip-rule="evenodd" d="M24.5428 5.66877C22.0816 3.20471 18.8085 1.84713 15.3213 1.8457C8.13599 1.8457 2.28791 7.6933 2.28511 14.8808C2.2841 17.1784 2.88439 19.421 4.02522 21.398L2.17578 28.1531L9.08642 26.3404C10.9905 27.3789 13.1343 27.9263 15.3161 27.9271H15.3214C15.3209 27.9271 15.3218 27.9271 15.3214 27.9271C22.5059 27.9271 28.3545 22.0789 28.3575 14.8912C28.3588 11.4079 27.004 8.13272 24.5428 5.66877ZM15.3213 25.7255H15.3169C13.3728 25.7247 11.4658 25.2023 9.80222 24.2152L9.40662 23.9804L5.30574 25.0561L6.40038 21.0578L6.14273 20.6478C5.05815 18.9227 4.48533 16.9288 4.48617 14.8815C4.4885 8.90758 9.34921 4.0474 15.3257 4.0474C18.2197 4.0483 20.9402 5.17685 22.9859 7.22489C25.0316 9.27292 26.1575 11.9952 26.1564 14.8903C26.1539 20.8648 21.2934 25.7255 15.3213 25.7255Z" fill="white"/>
<path fill-rule="evenodd" clip-rule="evenodd" d="M21.2664 17.6111C20.9407 17.448 19.3393 16.6602 19.0407 16.5514C18.7422 16.4427 18.525 16.3883 18.3079 16.7144C18.0907 17.0404 17.4665 17.7742 17.2765 17.9916C17.0865 18.2089 16.8964 18.2362 16.5708 18.073C16.2451 17.91 15.1955 17.5661 13.9514 16.4564C12.983 15.5926 12.3293 14.526 12.1393 14.1999C11.9493 13.8739 12.1191 13.6976 12.2821 13.5351C12.4287 13.3891 12.6079 13.1547 12.7708 12.9645C12.9336 12.7744 12.9879 12.6384 13.0965 12.4211C13.2051 12.2037 13.1508 12.0135 13.0693 11.8505C12.9879 11.6874 12.3365 10.0842 12.0651 9.43187C11.8006 8.79682 11.5321 8.88286 11.3321 8.87276C11.1424 8.86329 10.925 8.86133 10.7079 8.86133C10.4908 8.86133 10.1378 8.94287 9.83931 9.26889C9.54075 9.59502 8.69922 10.3831 8.69922 11.9862C8.69922 13.5895 9.8664 15.1384 10.0293 15.3557C10.1921 15.5732 12.3261 18.8631 15.5936 20.2741C16.3707 20.6097 16.9775 20.8101 17.4505 20.9602C18.2308 21.2081 18.9409 21.1731 19.5021 21.0892C20.128 20.9957 21.4293 20.3013 21.7007 19.5405C21.9722 18.7796 21.9722 18.1273 21.8907 17.9916C21.8093 17.8557 21.5921 17.7742 21.2664 17.6111Z" fill="white"/>
</svg>
