<svg width="30" height="30" viewBox="0 0 30 30" fill="none" xmlns="http://www.w3.org/2000/svg">
<path d="M9.75 0C15.1359 0 19.5 4.61719 19.5 10.3125C19.5 16.0078 15.1359 20.625 9.75 20.625C8.87344 20.625 8.025 20.4902 7.21406 20.2617C5.77969 21.375 3.70922 22.5 1.16953 22.5C0.701719 22.5 0.277969 22.1543 0.0945937 21.6152C-0.088875 21.0762 -0.000346877 20.4551 0.315891 20.0332C0.340312 20.0098 1.37719 18.5977 2.14359 16.752C0.805313 14.9883 0 12.75 0 10.3125C0 4.61719 4.36547 0 9.75 0ZM7.71563 17.4668C8.4 17.7129 9.08438 17.8125 9.75 17.8125C13.8844 17.8125 17.25 14.4492 17.25 10.3125C17.25 6.17578 13.8844 2.8125 9.75 2.8125C5.61563 2.8125 2.25 6.17578 2.25 10.3125C2.25 12.375 3.08016 13.8984 3.77672 14.8184L4.87969 16.2773L4.13953 18.0527C3.97219 18.4043 3.78422 18.8613 3.58828 19.248C4.41844 18.9492 5.23594 18.4863 6.03281 17.8184L6.81562 17.2617L7.71563 17.4668ZM20.7 7.51172C25.875 7.75781 30 12.2754 30 17.8125C30 20.25 29.1937 22.4883 27.8578 24.252C28.6219 26.0977 29.6578 27.5098 29.6859 27.5332C30 27.9551 30.0891 28.5762 29.8641 29.1152C29.7234 29.6543 29.2969 30 28.8281 30C26.2922 30 24.2203 28.875 22.7859 27.7617C21.975 27.9902 21.1266 28.125 20.25 28.125C16.4062 28.125 13.0828 25.7695 11.4937 22.3535C12.3047 22.2188 13.0828 21.9902 13.8234 21.6738C15.1359 23.8535 17.5266 25.3125 20.25 25.3125C20.9156 25.3125 21.6 25.2129 22.2844 24.9668L23.1844 24.7617L23.9672 25.3184C24.7641 25.9863 25.5797 26.4492 26.4141 26.748C26.2172 26.3613 26.0297 25.9043 25.8609 25.5527L25.1203 23.7773L26.2219 22.3184C26.9203 21.4043 27.75 19.875 27.75 17.8125C27.75 13.9277 24.7828 10.7285 20.9578 10.3477L21 10.3125C21 9.3457 20.8969 8.4082 20.7 7.51172Z" fill="white"/>
</svg>
