<svg width="30" height="30" viewBox="0 0 30 30" fill="none" xmlns="http://www.w3.org/2000/svg">
<g clip-path="url(#clip0_646_5414)">
<path d="M28.125 4.375H1.875C1.37772 4.375 0.900805 4.57254 0.549175 4.92417C0.197544 5.27581 0 5.75272 0 6.25L0 23.75C0 24.2473 0.197544 24.7242 0.549175 25.0758C0.900805 25.4275 1.37772 25.625 1.875 25.625H28.125C28.6223 25.625 29.0992 25.4275 29.4508 25.0758C29.8025 24.7242 30 24.2473 30 23.75V6.25C30 5.75272 29.8025 5.27581 29.4508 4.92417C29.0992 4.57254 28.6223 4.375 28.125 4.375ZM27.725 5.625L15 15.4625L2.275 5.625H27.725ZM1.25 23.4938V6.4125L10.8812 13.8563L1.25 23.4938ZM2.13125 24.375L11.875 14.6312L14.6125 16.75C14.7218 16.8341 14.8558 16.8797 14.9937 16.8797C15.1317 16.8797 15.2657 16.8341 15.375 16.75L18.125 14.6312L27.8688 24.375H2.13125ZM28.75 23.4938L19.1188 13.8563L28.75 6.4125V23.4938Z" fill="white"/>
</g>
<defs>
<clipPath id="clip0_646_5414">
<rect width="30" height="30" fill="white"/>
</clipPath>
</defs>
</svg>
