<svg width="30" height="30" viewBox="0 0 30 30" fill="none" xmlns="http://www.w3.org/2000/svg">
<g clip-path="url(#clip0_646_5399)">
<path d="M22.5 12.1875H20.625C20.6242 11.4418 20.3276 10.7269 19.8003 10.1997C19.2731 9.6724 18.5582 9.37582 17.8125 9.375V7.5C19.0553 7.50141 20.2467 7.99573 21.1255 8.8745C22.0043 9.75327 22.4986 10.9447 22.5 12.1875Z" fill="white"/>
<path d="M26.25 12.1875H24.375C24.3731 10.4476 23.681 8.77954 22.4508 7.54925C21.2205 6.31896 19.5524 5.62694 17.8125 5.625V3.75C20.0495 3.75248 22.1942 4.64223 23.776 6.22403C25.3578 7.80583 26.2475 9.9505 26.25 12.1875Z" fill="white"/>
<path d="M19.0619 20.1397L21.1619 18.0397C21.443 17.7585 21.8004 17.566 22.1898 17.486C22.5792 17.406 22.9836 17.4421 23.3527 17.5897L25.9103 18.6128C26.2873 18.7636 26.6104 19.0239 26.838 19.3602C27.0655 19.6965 27.1871 20.0932 27.187 20.4993V25.1505C27.1876 25.4269 27.1318 25.7006 27.023 25.9547C26.9142 26.2088 26.7547 26.4381 26.5542 26.6284C26.3537 26.8187 26.1165 26.9661 25.8571 27.0616C25.5976 27.1571 25.3215 27.1986 25.0454 27.1836C7.11865 26.0676 3.49831 10.8857 2.82565 5.06992C2.79311 4.78562 2.82112 4.49766 2.90787 4.22497C2.99461 3.95228 3.1381 3.70105 3.32892 3.48781C3.51973 3.27456 3.75353 3.10414 4.01494 2.98775C4.27635 2.87135 4.55944 2.81163 4.84559 2.81251H9.41384C9.81981 2.8125 10.2165 2.93414 10.5526 3.16174C10.8888 3.38934 11.149 3.71245 11.2998 4.08938L12.3229 6.64688C12.4705 7.016 12.5065 7.42032 12.4265 7.80972C12.3466 8.19912 12.1541 8.55649 11.8729 8.83754L9.7729 10.9375C9.7729 10.9375 10.937 19.1241 19.0619 20.1397Z" fill="white"/>
</g>
<defs>
<clipPath id="clip0_646_5399">
<rect width="30" height="30" fill="white"/>
</clipPath>
</defs>
</svg>
