<svg width="30" height="30" viewBox="0 0 30 30" fill="none" xmlns="http://www.w3.org/2000/svg">
<g clip-path="url(#clip0_646_5408)">
<path d="M14.2462 0.00244326C11.84 0.0349433 6.6625 0.429944 3.76625 3.08369C1.61625 5.22119 0.864996 8.37244 0.777496 12.2749C0.702496 16.1624 0.614996 23.4624 7.6525 25.4512V28.4762C7.6525 28.4762 7.605 29.6887 8.405 29.9387C9.3925 30.2512 9.955 29.3149 10.8925 28.3149L12.6425 26.3399C17.455 26.7399 21.1425 25.8162 21.5675 25.6787C22.5425 25.3662 28.0437 24.6649 28.9437 17.3637C29.8687 9.82494 28.4937 5.07494 26.0187 2.92494L26.0062 2.92244C25.2562 2.23494 22.2562 0.0474433 15.5437 0.0224433C15.5437 0.0224433 15.0487 -0.00880674 14.2462 0.00244326ZM14.33 2.12369C15.0112 2.11994 15.43 2.14869 15.43 2.14869C21.105 2.16119 23.8187 3.87369 24.4562 4.44869C26.5437 6.23494 27.6162 10.5187 26.8312 16.8137C26.0812 22.9137 21.6187 23.3012 20.7937 23.5637C20.4437 23.6762 17.1937 24.4762 13.1037 24.2137C13.1037 24.2137 10.055 27.8899 9.105 28.8399C8.955 29.0024 8.78 29.0524 8.6675 29.0274C8.505 28.9899 8.455 28.7899 8.4675 28.5149L8.4925 23.4912C2.52875 21.8412 2.87875 15.6137 2.94125 12.3637C3.01625 9.11369 3.62875 6.44869 5.44125 4.64869C7.8875 2.43619 12.285 2.13619 14.3287 2.12369H14.33ZM14.78 5.37369C14.7308 5.37353 14.6821 5.38307 14.6366 5.40178C14.5911 5.42049 14.5497 5.448 14.5149 5.48272C14.4801 5.51744 14.4524 5.5587 14.4336 5.60413C14.4147 5.64955 14.405 5.69826 14.405 5.74744C14.405 5.8469 14.4445 5.94228 14.5148 6.01261C14.5852 6.08293 14.6805 6.12244 14.78 6.12244C15.7093 6.10471 16.6329 6.27122 17.4975 6.61234C18.3621 6.95347 19.1506 7.46246 19.8175 8.10994C21.18 9.43494 21.8437 11.2099 21.8687 13.5349C21.8687 13.5842 21.8784 13.633 21.8973 13.6784C21.9161 13.7239 21.9438 13.7653 21.9786 13.8001C22.0134 13.8349 22.0547 13.8626 22.1002 13.8814C22.1457 13.9002 22.1945 13.9099 22.2437 13.9099V13.8987C22.3432 13.8987 22.4386 13.8592 22.5089 13.7889C22.5792 13.7185 22.6187 13.6231 22.6187 13.5237C22.6651 12.4303 22.4884 11.3389 22.0995 10.316C21.7105 9.29307 21.1174 8.36003 20.3562 7.57369C18.8687 6.12369 16.9925 5.37369 14.78 5.37369ZM9.8375 6.23619C9.57167 6.19831 9.30083 6.25116 9.06875 6.38619H9.05375C8.54125 6.68619 8.06875 7.06119 7.61875 7.56119C7.28125 7.96119 7.0925 8.35994 7.0425 8.74744C7.01308 8.97471 7.03443 9.20567 7.105 9.42369L7.13 9.43619C7.51528 10.5689 8.01802 11.6581 8.63 12.6862C9.42326 14.126 10.3979 15.4581 11.53 16.6499L11.5675 16.6999L11.6175 16.7374L11.655 16.7749L11.6925 16.8124C12.889 17.9474 14.2247 18.9261 15.6675 19.7249C17.3175 20.6249 18.32 21.0499 18.92 21.2249V21.2374C19.095 21.2874 19.255 21.3124 19.4175 21.3124C19.9297 21.2751 20.4146 21.0674 20.795 20.7224C21.2825 20.2849 21.67 19.7999 21.9575 19.2874V19.2749C22.245 18.7374 22.145 18.2237 21.7325 17.8737C20.9012 17.1464 20.0011 16.5017 19.045 15.9487C18.4075 15.5987 17.7575 15.8112 17.495 16.1612L16.9325 16.8724C16.645 17.2224 16.12 17.1724 16.12 17.1724L16.105 17.1849C12.205 16.1849 11.1675 12.2362 11.1675 12.2362C11.1675 12.2362 11.1175 11.6987 11.48 11.4237L12.18 10.8612C12.5175 10.5862 12.755 9.93619 12.3925 9.29869C11.8402 8.34211 11.1954 7.44198 10.4675 6.61119C10.3092 6.41481 10.0856 6.28175 9.8375 6.23619ZM15.4287 7.34869C15.3293 7.34903 15.234 7.38885 15.1639 7.45941C15.0939 7.52997 15.0547 7.62549 15.055 7.72494C15.0553 7.8244 15.0952 7.91965 15.1657 7.98974C15.2363 8.05983 15.3318 8.09903 15.4312 8.09869C16.6822 8.12041 17.8734 8.63737 18.7437 9.53619C19.1364 9.96934 19.4382 10.4768 19.6315 11.0285C19.8247 11.5803 19.9054 12.1652 19.8687 12.7487C19.8691 12.8479 19.9087 12.943 19.979 13.0131C20.0493 13.0831 20.1445 13.1224 20.2437 13.1224L20.2562 13.1374C20.3056 13.1374 20.3545 13.1277 20.4 13.1088C20.4456 13.0899 20.487 13.0621 20.5219 13.0272C20.5567 12.9922 20.5843 12.9507 20.6031 12.9051C20.6218 12.8594 20.6314 12.8105 20.6312 12.7612C20.6687 11.2737 20.2062 10.0237 19.2937 9.02369C18.3812 8.02369 17.1062 7.46119 15.4812 7.34869C15.4638 7.34747 15.4462 7.34747 15.4287 7.34869ZM16.0412 9.37244C15.9911 9.37097 15.9411 9.37938 15.8943 9.39721C15.8474 9.41503 15.8044 9.44192 15.7679 9.47634C15.7314 9.51075 15.7021 9.55202 15.6815 9.59779C15.6609 9.64355 15.6496 9.69292 15.6481 9.74307C15.6466 9.79322 15.6551 9.84317 15.6729 9.89006C15.6907 9.93696 15.7176 9.97988 15.752 10.0164C15.7864 10.0529 15.8277 10.0823 15.8735 10.1028C15.9192 10.1234 15.9686 10.1347 16.0187 10.1362C17.2562 10.1987 17.8562 10.8237 17.9312 12.1112C17.9345 12.2085 17.9754 12.3007 18.0454 12.3683C18.1154 12.436 18.2089 12.4737 18.3062 12.4737H18.3187C18.3691 12.4721 18.4186 12.4604 18.4644 12.4393C18.5101 12.4182 18.5511 12.388 18.585 12.3507C18.6188 12.3134 18.6448 12.2696 18.6613 12.222C18.6778 12.1744 18.6846 12.124 18.6812 12.0737C18.5937 10.3987 17.6812 9.45994 16.0562 9.37244C16.0512 9.37235 16.0462 9.37235 16.0412 9.37244Z" fill="white"/>
</g>
<defs>
<clipPath id="clip0_646_5408">
<rect width="30" height="30" fill="white"/>
</clipPath>
</defs>
</svg>
