<svg width="140" height="41" viewBox="0 0 140 41" fill="none" xmlns="http://www.w3.org/2000/svg">
<path fill-rule="evenodd" clip-rule="evenodd" d="M23.7791 24.6874C25.0882 26.3357 25.7753 28.4988 25.4994 30.8166C25.0513 34.5823 21.9885 37.6065 18.2175 38.0089C13.2516 38.5396 9.05882 34.6597 9.05882 29.8062C9.05882 29.6235 9.06409 29.4442 9.07463 29.2685C9.30834 25.2568 12.7789 22.1939 16.7976 22.1939H29.5937C29.5937 10.475 20.0924 0.979004 8.37877 0.979004V9.68077C6.7797 10.5524 5.19645 11.742 4.21416 12.9773C2.89097 14.6484 2.01763 15.7818 1.09333 18.1435C-0.287844 21.7002 -0.34056 25.7611 0.822721 29.4776C2.15118 33.7248 5.30364 37.3342 9.16601 39.1564C13.0231 40.9734 17.4531 41.1034 21.3154 39.3637C21.8918 39.1037 22.3803 38.8454 22.8829 38.4974C23.5735 38.0248 24.3361 37.3974 24.8773 36.7314C25.0689 36.4924 25.2516 36.3167 25.4379 36.0619C27.0739 33.8601 27.4429 31.3051 26.9175 29.1104C26.4623 27.2213 25.3412 25.5959 23.7791 24.6874ZM20.8392 13.1917C22.1677 13.0353 23.2062 14.0123 23.3468 15.1809C23.4979 16.49 22.5367 17.5373 21.384 17.6779C20.059 17.8396 18.9854 16.8625 18.8553 15.6993C18.7112 14.3655 19.6918 13.327 20.8392 13.1917Z" fill="white"/>
<path fill-rule="evenodd" clip-rule="evenodd" d="M23.779 24.6893C22.5929 24.0004 21.1362 23.5928 19.5476 23.9337C17.9819 24.2693 16.8468 25.2867 16.237 26.5906C14.5729 27.1178 13.3569 28.6799 13.3569 30.5127V33.0923H14.3322V35.3187H16.0191V33.0923H18.9221V35.3187H20.609V33.0923H21.5842V30.5127C21.5842 28.8205 20.5475 27.3585 19.0784 26.7294C20.2119 25.4431 22.4014 25.9949 23.7105 27.5184C24.807 28.7942 25.1075 30.6234 24.7472 32.2383C24.5434 33.1556 24.1726 34.3839 23.4381 35.3275C24.756 33.8655 25.5573 31.9308 25.5573 29.8063C25.5573 27.8734 24.8931 26.095 23.779 24.6893Z" fill="white"/>
<path fill-rule="evenodd" clip-rule="evenodd" d="M8.37893 18.7938L4.66064 12.4642C5.6359 11.4152 7.00302 10.4294 8.37893 9.67554" fill="#4D585A"/>
<path fill-rule="evenodd" clip-rule="evenodd" d="M45.2048 17.3901C45.1291 16.5385 44.7772 15.8869 44.1473 15.4319C43.5175 14.9786 42.724 14.7502 41.7651 14.7502C40.9188 14.7502 40.1956 14.9397 39.5939 15.3185C38.9922 15.6974 38.6913 16.2074 38.6913 16.8519C38.6913 17.3441 38.8989 17.7655 39.3124 18.1143C39.7259 18.4648 40.412 18.7534 41.3709 18.9801C42.1416 19.1695 42.8137 19.3395 43.3873 19.49C43.9608 19.6423 44.4676 19.7839 44.9109 19.9149C45.3526 20.0477 45.7467 20.1752 46.095 20.2974C46.4434 20.4195 46.7759 20.5576 47.0962 20.7081C47.7542 21.0304 48.2768 21.4925 48.6621 22.098C49.0474 22.7035 49.2409 23.4879 49.2409 24.4528C49.2409 25.3417 49.0667 26.1367 48.7184 26.836C48.37 27.5354 47.9002 28.1321 47.3091 28.6243C46.7161 29.1165 46.0264 29.4936 45.2364 29.7592C44.4464 30.0248 43.6002 30.1558 42.6993 30.1558C37.6796 30.1558 35.1126 28.1976 35 24.2811H38.4978C38.5171 25.1894 38.8743 25.8994 39.5693 26.4093C40.2643 26.921 41.1493 27.176 42.2208 27.176C42.6712 27.176 43.1093 27.1246 43.5315 27.0201C43.9538 26.9157 44.3303 26.7652 44.6593 26.5669C44.9884 26.3686 45.247 26.1313 45.4353 25.8622C45.6235 25.5878 45.7168 25.2903 45.7168 24.9681C45.7168 23.927 44.823 23.194 43.0371 22.7602C41.5328 22.4008 40.3962 22.0927 39.6256 21.8377C38.8549 21.5828 38.3007 21.3792 37.9611 21.2269C37.0586 20.8108 36.4005 20.2761 35.987 19.6139C35.5736 18.9517 35.366 18.1107 35.366 17.0926C35.366 16.3366 35.5067 15.6266 35.7882 14.9698C36.0697 14.3076 36.4797 13.7357 37.0146 13.2523C37.5512 12.7743 38.218 12.3918 39.0168 12.1085C39.8156 11.8252 40.7323 11.6836 41.7668 11.6836C42.7257 11.6836 43.6195 11.8217 44.4464 12.0944C45.2734 12.3688 45.9983 12.7512 46.6176 13.2435C47.2387 13.7357 47.7313 14.3306 48.099 15.0317C48.465 15.7311 48.6674 16.5172 48.7061 17.3866H45.2048V17.3901ZM57.461 19.2917C55.3937 19.2917 54.3591 20.5966 54.3591 23.2082C54.3591 25.8374 55.3937 27.1529 57.461 27.1529C59.5284 27.1529 60.5629 25.8374 60.5629 23.2082C60.5629 20.5966 59.5284 19.2917 57.461 19.2917ZM57.461 16.3968C58.4762 16.3968 59.3876 16.5579 60.197 16.8784C61.0046 17.2007 61.6907 17.6592 62.2555 18.2541C62.8203 18.8508 63.2514 19.5697 63.5522 20.4107C63.8531 21.2517 64.0026 22.1848 64.0026 23.2064C64.0026 24.228 63.8478 25.1593 63.5364 26.0021C63.2267 26.8449 62.7886 27.5637 62.2256 28.1586C61.6608 28.7553 60.9746 29.2139 60.1671 29.5343C59.3577 29.8566 58.4569 30.0159 57.4593 30.0159C56.4247 30.0159 55.4993 29.8513 54.6811 29.5184C53.863 29.1873 53.1715 28.7234 52.6085 28.1285C52.0437 27.5318 51.6127 26.813 51.3118 25.972C51.0109 25.1292 50.8614 24.2085 50.8614 23.2046C50.8614 22.183 51.0162 21.2552 51.3276 20.4231C51.6373 19.5909 52.0754 18.8756 52.6384 18.2807C53.2032 17.684 53.8929 17.2219 54.711 16.8908C55.5292 16.5633 56.4458 16.3968 57.461 16.3968ZM69.5185 29.6778H66.1351V12.0253H69.5185V29.6778ZM79.7426 23.3498C79.4048 23.6331 78.8119 23.8597 77.9656 24.0314C76.7991 24.2581 76.0108 24.5272 75.5974 24.8406C75.1839 25.1522 74.9763 25.5825 74.9763 26.1313C74.9763 27.0963 75.4848 27.5779 76.5 27.5779C76.9328 27.5779 77.3515 27.5159 77.7545 27.3937C78.1591 27.2716 78.511 27.0857 78.8119 26.8395C79.1127 26.5934 79.352 26.2818 79.5315 25.9029C79.7109 25.524 79.7989 25.0885 79.7989 24.598C79.7989 24.4458 79.7936 24.2386 79.7848 23.973C79.776 23.7092 79.762 23.5021 79.7426 23.3498ZM77.6559 16.3968C79.4787 16.3968 80.8476 16.8324 81.7589 17.7017C82.6703 18.5728 83.126 19.8388 83.126 21.5049V29.6778H79.9678C79.9309 29.5255 79.8922 29.3661 79.8552 29.1962C79.8183 29.0262 79.7901 28.8368 79.7708 28.6278C79.3573 29.0634 78.8207 29.3891 78.1626 29.6069C77.5046 29.8247 76.7428 29.9327 75.8789 29.9327C74.5822 29.9327 73.5423 29.6105 72.7629 28.9678C71.9835 28.325 71.5929 27.4345 71.5929 26.2995C71.5929 25.4107 71.7389 24.7007 72.031 24.1713C72.323 23.6419 72.7312 23.2258 73.2573 22.9231C73.7834 22.6203 74.408 22.3937 75.1329 22.2414C75.856 22.0892 76.6425 21.9581 77.487 21.8448C78.1644 21.751 78.6957 21.5987 79.0811 21.3916C79.4664 21.1826 79.6599 20.8905 79.6599 20.5116C79.6599 20.0194 79.4347 19.6511 78.9825 19.405C78.5321 19.1589 78.0324 19.0367 77.487 19.0367C76.8853 19.0367 76.3821 19.212 75.9774 19.5626C75.5727 19.9131 75.3335 20.3806 75.2578 20.9666H72.0152C72.1278 19.5289 72.6169 18.4082 73.4825 17.6043C74.3482 16.7987 75.7381 16.3968 77.6559 16.3968ZM92.9859 19.9167C92.6657 19.86 92.3561 19.8317 92.0552 19.8317C89.9685 19.8317 88.9251 20.8728 88.9251 22.9532V29.6795H85.5417V16.7385H88.7281V18.3002C89.0096 17.8646 89.3017 17.5247 89.6025 17.2785C89.9034 17.0324 90.2131 16.843 90.5333 16.7102C90.8535 16.5774 91.1825 16.4977 91.5203 16.4694C91.8581 16.4411 92.1977 16.4269 92.5355 16.4269H92.9859V19.9167ZM125.178 29.6778H121.936V27.8612C121.09 29.2989 119.765 30.0177 117.959 30.0177C117.321 30.0177 116.733 29.9044 116.197 29.6778C115.66 29.4511 115.201 29.1236 114.815 28.6986C114.43 28.2737 114.129 27.7709 113.913 27.1954C113.696 26.6182 113.589 25.9702 113.589 25.2514V16.7368H116.972V24.7397C116.972 26.3473 117.696 27.1512 119.144 27.1512C120.009 27.1512 120.667 26.8767 121.118 26.3279C121.568 25.779 121.795 25.069 121.795 24.1997V16.735H125.178V29.6778ZM133.641 19.32C131.752 19.32 130.807 20.7205 130.807 23.5198C130.807 24.6175 131.074 25.5116 131.606 26.2022C132.141 26.8927 132.829 27.2379 133.67 27.2379C134.511 27.2379 135.202 26.8732 135.747 26.1455C136.288 25.4178 136.56 24.4759 136.56 23.3215C136.56 20.6532 135.587 19.32 133.641 19.32ZM130.948 18.44H130.976C131.892 17.0785 133.143 16.3968 134.713 16.3968H134.741C135.55 16.3968 136.282 16.5615 136.937 16.8926C137.595 17.2237 138.146 17.6822 138.596 18.2683C139.046 18.8544 139.389 19.559 139.634 20.3823C139.879 21.2056 140 22.1086 140 23.0931C140 24.1713 139.859 25.1451 139.578 26.0163C139.296 26.8874 138.914 27.6204 138.425 28.2153C137.936 28.8119 137.359 29.2705 136.682 29.591C136.01 29.9132 135.267 30.0726 134.463 30.0726C132.869 30.0726 131.681 29.4104 130.891 28.086L130.863 29.676H127.564V12.0235H130.948V18.44ZM111.288 29.6778H107.649V21.8448H100.881V29.6778H97.242V12.2236H100.881V18.8083H107.649V12.2236H111.288V29.6778Z" fill="white"/>
</svg>
