<svg width="15" height="13" viewBox="0 0 15 13" fill="none" xmlns="http://www.w3.org/2000/svg">
<path d="M13.9028 2.56921C14.5627 2.99184 15 3.73144 15 4.57317V8.96341C15 11.085 13.2801 12.8049 11.1585 12.8049H4.57317C3.73144 12.8049 2.99184 12.3675 2.56921 11.7077L11.1585 11.7073C12.674 11.7073 13.9024 10.4789 13.9024 8.96341L13.9028 2.56921ZM13.1707 3.00732V8.59756C13.1707 9.86561 12.1782 10.9019 10.9276 10.9719L10.7927 10.9756H2.37805C1.10998 10.9756 0.0737196 9.98305 0.00376102 8.73249L0 8.59756V3.00732L6.32978 6.33929C6.48973 6.42351 6.681 6.42351 6.84095 6.33929L13.1707 3.00732ZM2.37805 0H10.7927C11.9083 0 12.8445 0.768219 13.1011 1.80452L6.58537 5.23354L0.0696219 1.80452C0.315549 0.811397 1.18559 0.0644855 2.23957 0.00396601L2.37805 0Z" fill="white"/>
</svg>
