<svg width="12" height="12" viewBox="0 0 12 12" fill="none" xmlns="http://www.w3.org/2000/svg">
<path d="M8.63192 11.7785C8.17363 11.7751 7.71734 11.7176 7.27254 11.6071C5.73651 11.2365 4.15477 10.2964 2.81942 8.95987C1.48407 7.62335 0.542759 6.04132 0.172153 4.50674C-0.218081 2.89249 0.0602394 1.51143 0.954966 0.616706L1.21043 0.361237C1.44222 0.129916 1.75631 0 2.08377 0C2.41124 0 2.72533 0.129916 2.95711 0.361237L4.42518 1.82901C4.65665 2.06072 4.78666 2.37484 4.78666 2.70235C4.78666 3.02986 4.65665 3.34398 4.42518 3.57569L3.55799 4.44258C3.97372 5.17208 4.53915 5.90215 5.20741 6.57042C5.87567 7.23868 6.60633 7.8044 7.33553 8.22012L8.20243 7.35294C8.3171 7.23822 8.45325 7.14722 8.6031 7.08513C8.75295 7.02305 8.91356 6.99109 9.07577 6.99109C9.23797 6.99109 9.39858 7.02305 9.54843 7.08513C9.69828 7.14722 9.83443 7.23822 9.94911 7.35294L11.4169 8.82071C11.6484 9.05233 11.7785 9.36641 11.7785 9.6939C11.7785 10.0214 11.6484 10.3355 11.4169 10.5671L11.1611 10.8226C10.5304 11.4545 9.65731 11.7785 8.63192 11.7785ZM2.08377 0.878327C2.037 0.878095 1.99065 0.8872 1.94743 0.905109C1.90422 0.923018 1.86501 0.949371 1.83211 0.982623L1.57635 1.23809C0.906333 1.90811 0.71063 2.9959 1.02528 4.29932C1.35838 5.68008 2.2159 7.11475 3.43963 8.33819C4.66336 9.56163 6.09774 10.4183 7.47879 10.7525C8.78251 11.0672 9.86971 10.8715 10.5397 10.2015L10.7952 9.946C10.8619 9.8792 10.8994 9.78863 10.8994 9.6942C10.8994 9.59976 10.8619 9.50919 10.7952 9.44239L9.32772 7.97462C9.26092 7.90787 9.17035 7.87037 9.07591 7.87037C8.98148 7.87037 8.89091 7.90787 8.82411 7.97462L7.72518 9.07354C7.65924 9.13952 7.57402 9.1828 7.48185 9.19713C7.38968 9.21145 7.29534 9.19608 7.21249 9.15323C6.31161 8.68741 5.4034 8.00919 4.58602 7.1918C3.76864 6.37442 3.09188 5.4668 2.62489 4.56592C2.582 4.4831 2.56658 4.38878 2.58085 4.29661C2.59513 4.20444 2.63835 4.1192 2.70428 4.05323L3.8035 2.9543C3.87025 2.8875 3.90774 2.79693 3.90774 2.7025C3.90774 2.60806 3.87025 2.51749 3.8035 2.45069L2.33573 0.982623C2.30272 0.949428 2.26346 0.923115 2.22021 0.905212C2.17696 0.887308 2.13058 0.87817 2.08377 0.878327Z" fill="white"/>
<path d="M9.10132 6.4959C8.98477 6.4959 8.87299 6.4496 8.79058 6.36719C8.70816 6.28477 8.66187 6.173 8.66187 6.05645C8.66101 5.28551 8.3544 4.54638 7.80929 4.00122C7.26418 3.45605 6.52509 3.14937 5.75415 3.14844C5.6376 3.14844 5.52582 3.10214 5.44341 3.01972C5.361 2.93731 5.3147 2.82553 5.3147 2.70898C5.3147 2.59243 5.361 2.48066 5.44341 2.39824C5.52582 2.31583 5.6376 2.26953 5.75415 2.26953C7.84214 2.26953 9.54077 3.96875 9.54077 6.05645C9.54077 6.173 9.49447 6.28477 9.41206 6.36719C9.32965 6.4496 9.21787 6.4959 9.10132 6.4959Z" fill="white"/>
<path d="M10.9587 6.4959C10.8422 6.4959 10.7304 6.4496 10.648 6.36719C10.5656 6.28477 10.5193 6.173 10.5193 6.05645C10.5193 3.42881 8.38062 1.29102 5.75415 1.29102C5.6376 1.29102 5.52582 1.24472 5.44341 1.1623C5.361 1.07989 5.3147 0.968113 5.3147 0.851562C5.3147 0.735012 5.361 0.623236 5.44341 0.540822C5.52582 0.458409 5.6376 0.412109 5.75415 0.412109C8.86636 0.412109 11.3982 2.94424 11.3982 6.05645C11.3982 6.173 11.3519 6.28477 11.2695 6.36719C11.1871 6.4496 11.0753 6.4959 10.9587 6.4959Z" fill="white"/>
</svg>
