<svg width="167" height="135" viewBox="0 0 167 135" fill="none" xmlns="http://www.w3.org/2000/svg">
<path d="M67.5058 108.713C104.788 123.231 138.648 126.68 143.135 116.418C147.622 106.155 121.035 86.0662 83.7531 71.5484C46.4708 57.0305 12.6105 53.5811 8.1239 63.8439C3.63733 74.1066 30.2235 94.1953 67.5058 108.713Z" fill="#93D500"/>
<path d="M61.8247 24.2472L82.9621 24.2472C82.6057 22.5531 82.427 20.8305 82.4283 19.1039C82.4283 8.10215 91.0307 0 104.994 0C116.109 0 118.975 11.1448 123.563 18.0899C125.461 20.9401 127.732 23.4438 129.904 25.7252L129.936 25.7588L129.968 25.7927C133.725 29.8055 135.662 31.2275 137.371 31.2275H138.028C139.437 30.0904 141.348 29.3906 143.453 29.3906L159.151 29.3906C163.486 29.3906 167 32.3512 167 36.0034L167 88.9065C167 92.5587 163.486 95.5193 159.151 95.5193H143.453C141.348 95.5193 139.437 94.8195 138.028 93.6824H137.371C130.334 93.6824 120.903 102.867 106.171 102.867H100.947C85.6067 102.867 76.7133 93.9906 76.4337 81.9388C73.3721 77.8487 71.8983 72.574 72.5129 67.5211C71.6393 65.9158 70.9859 64.2136 70.5681 62.4549H61.8247C50.6804 62.4549 41.4175 53.8251 41.4175 43.3511C41.4175 32.9957 50.7628 24.2472 61.8247 24.2472ZM61.8247 51.4335L84.1514 51.4335C81.0028 54.8017 80.6157 61.2667 85.3655 65.4514C82.6118 69.9624 84.9518 75.9273 88.5358 77.7644C86.9356 86.7488 91.0072 91.8455 100.947 91.8455H106.171C117.329 91.8455 125.109 83.5994 135.605 82.7354L135.605 42.1504C129.414 41.4699 125.066 37.2776 121.115 33.0586C118.349 30.154 115.786 27.2494 113.56 23.9028C110.008 18.5326 107.151 11.0215 104.994 11.0215C99.2603 11.0215 94.2015 13.0421 94.2015 19.1039C94.2015 27.1863 100.677 31.2906 100.677 35.2687L61.8247 35.2687C57.3054 35.2687 53.1909 39.0573 53.1909 43.3511C53.1909 47.708 57.1705 51.4335 61.8247 51.4335ZM145.416 80.8241C145.416 83.8676 148.051 86.3348 151.302 86.3348C154.554 86.3348 157.189 83.8676 157.189 80.8241C157.189 77.7805 154.554 75.3133 151.302 75.3133C148.051 75.3133 145.416 77.7805 145.416 80.8241Z" fill="black"/>
</svg>
