<svg width="167" height="136" viewBox="0 0 167 136" fill="none" xmlns="http://www.w3.org/2000/svg">
<path d="M66.6367 107.829C103.439 123.042 136.864 126.657 141.293 115.902C145.722 105.148 119.478 84.0967 82.675 68.8833C45.8724 53.6699 12.4478 50.0552 8.01896 60.8097C3.59012 71.5641 29.8342 92.6152 66.6367 107.829Z" fill="#93D500"/>
<path d="M146.856 25.7838L125.991 25.7838C126.343 24.0085 126.519 22.2033 126.518 20.394C126.518 8.8652 118.026 0.374878 104.243 0.374878C93.2718 0.374878 90.442 12.0536 85.9132 19.3314C84.0404 22.3182 81.7987 24.9418 79.6542 27.3326L79.6225 27.3677L79.5913 27.4033C75.8823 31.6083 73.97 33.0984 72.2839 33.0984H71.6353C70.2439 31.9069 68.358 31.1735 66.2797 31.1735L50.7842 31.1735C46.5053 31.1735 43.0365 34.276 43.0365 38.1032L43.0365 93.5408C43.0365 97.368 46.5053 100.47 50.7842 100.47H66.2797C68.358 100.47 70.2439 99.7371 71.6353 98.5455H72.2839C79.2298 98.5455 88.5389 108.17 103.081 108.17H108.238C123.38 108.17 132.159 98.8684 132.435 86.2393C135.457 81.9533 136.912 76.4259 136.305 71.1309C137.168 69.4487 137.813 67.6649 138.225 65.822L146.856 65.822C157.856 65.822 167 56.7787 167 45.8029C167 34.9514 157.775 25.7838 146.856 25.7838ZM146.856 54.2725L124.817 54.2725C127.925 57.8021 128.307 64.5768 123.619 68.962C126.337 73.6891 124.027 79.9398 120.489 81.8649C122.069 91.2797 118.05 96.6206 108.238 96.6206H103.081C92.0671 96.6206 84.3874 87.9794 74.0272 87.074L74.0272 44.5447C80.138 43.8315 84.43 39.4384 88.3302 35.0173C91.0601 31.9736 93.5902 28.9298 95.7872 25.4228C99.2933 19.7953 102.114 11.9244 104.243 11.9244C109.903 11.9244 114.896 14.0418 114.896 20.394C114.896 28.8636 108.505 33.1646 108.505 37.3332L146.856 37.3332C151.317 37.3332 155.378 41.3034 155.378 45.8029C155.378 50.3685 151.45 54.2725 146.856 54.2725ZM64.3425 85.0711C64.3425 88.2605 61.741 90.8459 58.5317 90.8459C55.3225 90.8459 52.7209 88.2605 52.7209 85.0711C52.7209 81.8818 55.3225 79.2964 58.5317 79.2964C61.741 79.2964 64.3425 81.8818 64.3425 85.0711Z" fill="black"/>
</svg>
