<svg width="30" height="30" viewBox="0 0 30 30" fill="none" xmlns="http://www.w3.org/2000/svg">
<path d="M14.9997 7.19727C10.7659 7.19727 7.25781 10.6448 7.25781 14.9392C7.25781 19.2336 10.7054 22.6811 14.9997 22.6811C19.2941 22.6811 22.7417 19.1731 22.7417 14.9392C22.7417 10.7053 19.2336 7.19727 14.9997 7.19727ZM14.9997 19.8989C12.278 19.8989 10.0401 17.661 10.0401 14.9392C10.0401 12.2174 12.278 9.97952 14.9997 9.97952C17.7215 9.97952 19.9594 12.2174 19.9594 14.9392C19.9594 17.661 17.7215 19.8989 14.9997 19.8989Z" fill="white"/>
<path d="M23.0431 8.76978C24.0118 8.76978 24.7971 7.98448 24.7971 7.01575C24.7971 6.04703 24.0118 5.26172 23.0431 5.26172C22.0744 5.26172 21.2891 6.04703 21.2891 7.01575C21.2891 7.98448 22.0744 8.76978 23.0431 8.76978Z" fill="white"/>
<path d="M27.5806 2.47984C26.0081 0.846774 23.7702 0 21.2298 0H8.77016C3.50806 0 0 3.50806 0 8.77016V21.1694C0 23.7702 0.846774 26.0081 2.54032 27.6411C4.17339 29.2137 6.35081 30 8.83065 30H21.1694C23.7702 30 25.9476 29.1532 27.5202 27.6411C29.1532 26.0685 30 23.8306 30 21.2298V8.77016C30 6.22984 29.1532 4.05242 27.5806 2.47984ZM27.3387 21.2298C27.3387 23.1048 26.6734 24.6169 25.5847 25.6452C24.496 26.6734 22.9839 27.2177 21.1694 27.2177H8.83065C7.01613 27.2177 5.50403 26.6734 4.41532 25.6452C3.32661 24.5565 2.78226 23.0444 2.78226 21.1694V8.77016C2.78226 6.95564 3.32661 5.44355 4.41532 4.35484C5.44355 3.32661 7.01613 2.78226 8.83065 2.78226H21.2903C23.1048 2.78226 24.6169 3.32661 25.7056 4.41532C26.7339 5.50403 27.3387 7.01613 27.3387 8.77016V21.2298Z" fill="white"/>
</svg>
