<svg width="140" height="40" viewBox="0 0 140 40" fill="none" xmlns="http://www.w3.org/2000/svg">
<path fill-rule="evenodd" clip-rule="evenodd" d="M23.7791 23.7084C25.0882 25.3567 25.7753 27.5199 25.4994 29.8376C25.0513 33.6034 21.9885 36.6275 18.2175 37.0299C13.2516 37.5606 9.05882 33.6807 9.05882 28.8272C9.05882 28.6445 9.06409 28.4652 9.07464 28.2895C9.30835 24.2778 12.7789 21.2149 16.7976 21.2149H29.5937C29.5937 9.49603 20.0924 0 8.37878 0V8.70176C6.7797 9.57335 5.19645 10.763 4.21416 11.9983C2.89097 13.6694 2.01763 14.8028 1.09333 17.1645C-0.287844 20.7212 -0.34056 24.7821 0.822722 28.4986C2.15118 32.7458 5.30364 36.3552 9.16601 38.1774C13.0231 39.9944 17.4531 40.1244 21.3154 38.3848C21.8918 38.1247 22.3803 37.8664 22.8829 37.5185C23.5735 37.0458 24.3361 36.4184 24.8773 35.7524C25.0689 35.5135 25.2516 35.3377 25.4379 35.0829C27.0739 32.8811 27.4429 30.3261 26.9175 28.1314C26.4623 26.2424 25.3412 24.6169 23.7791 23.7084ZM20.8392 12.2127C22.1677 12.0563 23.2062 13.0333 23.3468 14.2019C23.4979 15.511 22.5367 16.5583 21.384 16.6989C20.059 16.8605 18.9854 15.8835 18.8553 14.7203C18.7112 13.3848 19.6918 12.348 20.8392 12.2127Z" fill="#93D500"/>
<path fill-rule="evenodd" clip-rule="evenodd" d="M23.7795 23.7103C22.5934 23.0214 21.1366 22.6138 19.5481 22.9547C17.9824 23.2903 16.8473 24.3077 16.2375 25.6116C14.5734 26.1388 13.3574 27.7009 13.3574 29.5337V32.1133H14.3327V34.3397H16.0196V32.1133H18.9225V34.3397H20.6095V32.1133H21.5847V29.5337C21.5847 27.8415 20.548 26.3795 19.0789 25.7504C20.2123 24.4641 22.4018 25.0159 23.711 26.5394C24.8075 27.8151 25.108 29.6444 24.7477 31.2593C24.5439 32.1766 24.1731 33.4049 23.4386 34.3485C24.7565 32.8865 25.5578 30.9518 25.5578 28.8273C25.5578 26.8944 24.8936 25.1161 23.7795 23.7103Z" fill="#009845"/>
<path fill-rule="evenodd" clip-rule="evenodd" d="M8.37844 17.8148L4.66016 11.4852C5.63541 10.4362 7.00253 9.45038 8.37844 8.69653" fill="#009845"/>
<path fill-rule="evenodd" clip-rule="evenodd" d="M45.3247 16.3843C45.2491 15.5391 44.8977 14.8924 44.2686 14.4408C43.6395 13.9909 42.847 13.7643 41.8893 13.7643C41.0441 13.7643 40.3219 13.9523 39.7209 14.3283C39.12 14.7044 38.8195 15.2105 38.8195 15.8501C38.8195 16.3386 39.0268 16.7568 39.4398 17.103C39.8527 17.4509 40.538 17.7373 41.4957 17.9623C42.2654 18.1503 42.9366 18.319 43.5095 18.4683C44.0823 18.6195 44.5884 18.76 45.0312 18.8901C45.4723 19.0219 45.8659 19.1484 46.2139 19.2696C46.5618 19.3909 46.8939 19.5279 47.2137 19.6773C47.8709 19.9971 48.3928 20.4558 48.7776 21.0567C49.1625 21.6577 49.3558 22.4362 49.3558 23.3938C49.3558 24.276 49.1818 25.065 48.8339 25.7591C48.4859 26.4532 48.0168 27.0453 47.4263 27.5339C46.8342 28.0224 46.1453 28.3966 45.3563 28.6602C44.5673 28.9238 43.7221 29.0539 42.8224 29.0539C37.8091 29.0539 35.2453 27.1104 35.1328 23.2234H38.6262C38.6455 24.1248 39.0022 24.8295 39.6963 25.3356C40.3904 25.8434 41.2743 26.0964 42.3445 26.0964C42.7943 26.0964 43.2319 26.0455 43.6536 25.9418C44.0753 25.8381 44.4514 25.6888 44.78 25.492C45.1086 25.2952 45.3669 25.0597 45.5549 24.7926C45.7429 24.5202 45.8361 24.225 45.8361 23.9052C45.8361 22.8719 44.9434 22.1445 43.1598 21.7122C41.6574 21.3555 40.5222 21.0497 39.7526 20.7967C38.9829 20.5436 38.4294 20.3415 38.0902 20.1904C37.1888 19.7775 36.5316 19.2468 36.1186 18.5896C35.7057 17.9324 35.4983 17.0977 35.4983 16.0873C35.4983 15.337 35.6389 14.6323 35.9201 13.9804C36.2012 13.3232 36.6106 12.7556 37.1448 12.2759C37.6808 11.8014 38.3468 11.4219 39.1446 11.1407C39.9423 10.8596 40.8578 10.719 41.8911 10.719C42.8488 10.719 43.7414 10.8561 44.5673 11.1267C45.3932 11.399 46.1172 11.7786 46.7358 12.2671C47.3561 12.7556 47.8481 13.346 48.2153 14.0419C48.5808 14.736 48.7829 15.5162 48.8216 16.379H45.3247V16.3843ZM57.5655 18.2715C55.5008 18.2715 54.4675 19.5666 54.4675 22.1585C54.4675 24.768 55.5008 26.0736 57.5655 26.0736C59.6302 26.0736 60.6635 24.768 60.6635 22.1585C60.6635 19.5666 59.6302 18.2715 57.5655 18.2715ZM57.5655 15.3985C58.5794 15.3985 59.4897 15.5584 60.298 15.8764C61.1046 16.1963 61.7899 16.6514 62.3539 17.2418C62.918 17.834 63.3485 18.5474 63.649 19.3821C63.9495 20.2168 64.0989 21.1428 64.0989 22.1568C64.0989 23.1707 63.9442 24.095 63.6332 24.9314C63.3239 25.7661 62.8864 26.4813 62.3241 27.0717C61.76 27.6639 61.0747 28.119 60.2681 28.4371C59.4598 28.7569 58.5601 28.915 57.5638 28.915C56.5305 28.915 55.6062 28.7516 54.7891 28.423C53.972 28.0944 53.2814 27.634 52.7191 27.0436C52.155 26.4514 51.7245 25.738 51.424 24.9033C51.1235 24.0686 50.9742 23.1531 50.9742 22.1568C50.9742 21.1428 51.1288 20.2221 51.4398 19.3962C51.7491 18.5703 52.1867 17.8603 52.749 17.2699C53.313 16.6777 54.0019 16.2191 54.819 15.8905C55.6361 15.5637 56.5516 15.3985 57.5655 15.3985ZM69.6078 28.5794H66.2286V11.0617H69.6078V28.5794ZM79.819 22.2991C79.4816 22.5802 78.8894 22.8052 78.0442 22.9756C76.8791 23.2005 76.0919 23.4676 75.679 23.7787C75.266 24.0879 75.0587 24.5149 75.0587 25.0597C75.0587 26.0174 75.5665 26.4953 76.5804 26.4953C77.0127 26.4953 77.4309 26.4338 77.8333 26.3126C78.2375 26.1913 78.5889 26.0068 78.8894 25.7626C79.1899 25.5183 79.4289 25.2091 79.6081 24.833C79.7873 24.457 79.8752 24.0247 79.8752 23.5379C79.8752 23.3868 79.8699 23.1812 79.8611 22.9176C79.8524 22.6558 79.8383 22.4502 79.819 22.2991ZM77.7349 15.3985C79.5554 15.3985 80.9225 15.8308 81.8328 16.6936C82.743 17.5581 83.1981 18.8145 83.1981 20.4681V28.5794H80.0439C80.007 28.4283 79.9683 28.2701 79.9314 28.1014C79.8945 27.9327 79.8664 27.7447 79.8471 27.5374C79.4341 27.9696 78.8982 28.293 78.241 28.5091C77.5838 28.7252 76.8229 28.8324 75.9601 28.8324C74.665 28.8324 73.6265 28.5126 72.8481 27.8748C72.0696 27.2369 71.6795 26.353 71.6795 25.2266C71.6795 24.3445 71.8254 23.6398 72.1171 23.1144C72.4088 22.589 72.8164 22.1761 73.3419 21.8756C73.8673 21.5751 74.4911 21.3502 75.2151 21.1991C75.9373 21.0479 76.7228 20.9179 77.5662 20.8054C78.2427 20.7123 78.7734 20.5612 79.1583 20.3556C79.5431 20.1482 79.7364 19.8583 79.7364 19.4823C79.7364 18.9938 79.5115 18.6283 79.0599 18.384C78.61 18.1397 78.111 18.0185 77.5662 18.0185C76.9652 18.0185 76.4627 18.1925 76.0585 18.5404C75.6544 18.8883 75.4154 19.3522 75.3398 19.9339H72.1013C72.2137 18.507 72.7022 17.3947 73.5668 16.5969C74.4313 15.7974 75.8195 15.3985 77.7349 15.3985ZM93.0456 18.8918C92.7258 18.8356 92.4165 18.8075 92.116 18.8075C90.032 18.8075 88.9899 19.8407 88.9899 21.9055V28.5812H85.6108V15.7359H88.7931V17.2857C89.0743 16.8535 89.366 16.5161 89.6664 16.2718C89.9669 16.0276 90.2762 15.8395 90.596 15.7077C90.9158 15.576 91.2444 15.4969 91.5818 15.4688C91.9192 15.4407 92.2584 15.4266 92.5957 15.4266H93.0456V18.8918ZM125.197 28.5794H121.959V26.7765C121.114 28.2034 119.791 28.9168 117.988 28.9168C117.35 28.9168 116.763 28.8043 116.227 28.5794C115.691 28.3545 115.232 28.0294 114.847 27.6077C114.463 27.1859 114.162 26.6869 113.946 26.1158C113.73 25.5429 113.623 24.8998 113.623 24.1863V15.7359H117.002V23.6785C117.002 25.2741 117.724 26.0718 119.17 26.0718C120.035 26.0718 120.692 25.7995 121.142 25.2547C121.592 24.71 121.818 24.0054 121.818 23.1426V15.7359H125.197V28.5794ZM133.65 18.2997C131.762 18.2997 130.819 19.6896 130.819 22.4678C130.819 23.5573 131.086 24.4447 131.617 25.13C132.151 25.8153 132.838 26.1579 133.678 26.1579C134.518 26.1579 135.208 25.796 135.753 25.0737C136.293 24.3515 136.565 23.4167 136.565 22.271C136.565 19.6228 135.593 18.2997 133.65 18.2997ZM130.959 17.4263H130.988C131.903 16.075 133.152 15.3985 134.72 15.3985H134.748C135.556 15.3985 136.287 15.5619 136.941 15.8923C137.598 16.2209 138.148 16.676 138.598 17.2576C139.048 17.8393 139.391 18.5386 139.635 19.3557C139.879 20.1728 140 21.069 140 22.0461C140 23.1162 139.86 24.0827 139.579 24.9472C139.297 25.8118 138.916 26.5393 138.428 27.1297C137.939 27.7219 137.363 28.177 136.686 28.4951C136.015 28.8149 135.273 28.973 134.47 28.973C132.878 28.973 131.692 28.3158 130.903 27.0014L130.875 28.5794H127.58V11.0617H130.959V17.4263ZM111.324 28.5794H107.69V20.8072H100.93V28.5812H97.2963V11.2585H100.93V17.7936H107.69V11.2585H111.324V28.5794Z" fill="#001689"/>
</svg>
