<svg width="179" height="170" viewBox="0 0 179 170" fill="none" xmlns="http://www.w3.org/2000/svg">
<path d="M51.2777 157.258C83.2064 170.848 112.204 174.077 116.046 164.47C119.89 154.863 97.1207 136.056 65.192 122.465C33.2633 108.875 4.26523 105.645 0.422902 115.252C-3.41941 124.861 19.3491 143.666 51.2777 157.258Z" fill="#93D500"/>
<path d="M57.3558 40.3255C68.1463 40.3255 76.9275 31.2791 76.9275 20.1628C76.9275 9.04635 68.1463 0 57.3558 0C46.5653 0 37.7841 9.04635 37.7841 20.1628C37.7841 31.2791 46.5653 40.3255 57.3558 40.3255ZM57.3558 6.72092C64.5516 6.72092 70.4036 12.7496 70.4036 20.1628C70.4036 27.5759 64.5516 33.6046 57.3558 33.6046C50.1599 33.6046 44.308 27.5759 44.308 20.1628C44.308 12.7496 50.1599 6.72092 57.3558 6.72092ZM98.4563 79.9789C97.021 81.1013 94.9725 80.7989 93.8896 79.3068C91.3975 75.8859 87.594 73.9301 83.4514 73.9301C76.2555 73.9301 70.4036 79.9587 70.4036 87.3719C70.4036 94.7851 76.2555 100.814 83.4514 100.814C84.3451 100.814 85.2193 100.72 86.0674 100.545C87.8354 100.175 89.5577 101.358 89.91 103.173C90.2623 104.987 89.1206 106.762 87.3592 107.131C86.0935 107.394 84.7887 107.535 83.4514 107.535C72.6608 107.535 63.8797 98.4883 63.8797 87.3719C63.8797 76.2555 72.6608 67.2092 83.4514 67.2092C89.6686 67.2092 95.3705 70.1529 99.1087 75.2743C100.192 76.7596 99.8981 78.8632 98.4563 79.9789ZM109.547 40.3255C120.337 40.3255 129.119 31.2791 129.119 20.1628C129.119 9.04635 120.337 0 109.547 0C98.7564 0 89.9752 9.04635 89.9752 20.1628C89.9752 31.2791 98.7564 40.3255 109.547 40.3255ZM109.547 6.72092C116.743 6.72092 122.595 12.7496 122.595 20.1628C122.595 27.5759 116.743 33.6046 109.547 33.6046C102.351 33.6046 96.4991 27.5759 96.4991 20.1628C96.4991 12.7496 102.351 6.72092 109.547 6.72092ZM57.3558 60.4883C42.9641 60.4883 31.2602 72.5456 31.2602 87.3719V90.7324C31.2602 92.5873 29.7989 94.0928 27.9983 94.0928C26.1977 94.0928 24.7363 92.5873 24.7363 90.7324V87.3719C24.7363 68.8424 39.3694 53.7673 57.3558 53.7673C61.0809 53.7673 64.7343 54.4125 68.2311 55.6761C69.9273 56.2944 70.8211 58.2099 70.2209 59.964C69.6142 61.7115 67.7549 62.6188 66.0587 62.0139C63.2664 60.999 60.3437 60.4815 57.3623 60.4815L57.3558 60.4883ZM89.9557 124.888C89.7534 126.73 88.1616 128.02 86.3545 127.859C85.402 127.751 84.4299 127.697 83.4514 127.697C69.0596 127.697 57.3558 139.755 57.3558 154.581V157.942C57.3558 159.797 55.8944 161.302 54.0938 161.302C52.2932 161.302 50.8319 159.797 50.8319 157.942V154.581C50.8319 136.052 65.465 120.977 83.4514 120.977C84.6778 120.977 85.8848 121.044 87.0721 121.178C88.8597 121.38 90.1579 123.04 89.9557 124.888ZM128.564 64.0907C127.931 65.0585 126.9 65.5827 125.85 65.5827C125.224 65.5827 124.598 65.4012 124.036 65.0181C117.278 60.3538 108.49 59.2449 100.844 62.0206C99.1413 62.6255 97.282 61.7182 96.6818 59.9707C96.0816 58.2166 96.9754 56.3011 98.6716 55.6828C108.242 52.2081 119.215 53.606 127.67 59.4331C129.164 60.4681 129.569 62.5449 128.564 64.0907ZM177.343 133L168.699 127.919C170.513 123.746 171.517 119.122 171.517 114.256C171.517 109.39 170.506 104.772 168.699 100.592L177.343 95.511C178.909 94.5902 179.45 92.5403 178.557 90.9273C177.663 89.3143 175.667 88.7497 174.107 89.6772L165.457 94.7649C160.133 87.0896 151.75 81.807 142.16 80.819V70.5696C142.16 68.7147 140.699 67.2092 138.898 67.2092C137.097 67.2092 135.636 68.7147 135.636 70.5696V80.819C126.046 81.807 117.669 87.0896 112.339 94.7649L103.688 89.6772C102.123 88.7497 100.133 89.3143 99.2392 90.9273C98.3454 92.5403 98.8869 94.5902 100.453 95.511L109.097 100.592C107.283 104.766 106.278 109.39 106.278 114.256C106.278 119.122 107.29 123.739 109.097 127.919L100.453 133C98.8869 133.921 98.3454 135.971 99.2392 137.584C99.8394 138.673 100.942 139.278 102.077 139.278C102.625 139.278 103.18 139.136 103.695 138.834L112.346 133.746C117.669 141.422 126.052 146.704 135.642 147.692V157.942C135.642 159.797 137.104 161.302 138.904 161.302C140.705 161.302 142.166 159.797 142.166 157.942V147.692C151.756 146.704 160.133 141.422 165.463 133.746L174.114 138.834C174.623 139.136 175.184 139.278 175.732 139.278C176.867 139.278 177.963 138.673 178.57 137.584C179.463 135.971 178.922 133.921 177.356 133H177.343ZM138.898 141.139C124.506 141.139 112.802 129.082 112.802 114.256C112.802 99.4292 124.506 87.3719 138.898 87.3719C153.29 87.3719 164.993 99.4292 164.993 114.256C164.993 129.082 153.29 141.139 138.898 141.139Z" fill="black"/>
</svg>
