<svg width="30" height="31" viewBox="0 0 30 31" fill="none" xmlns="http://www.w3.org/2000/svg">
<path d="M29.1667 16.0416C29.1667 24.096 22.6377 30.6249 14.5833 30.6249C6.52925 30.6249 0 24.096 0 16.0416C0 7.9875 6.52925 1.45825 14.5833 1.45825C22.6377 1.45825 29.1667 7.9875 29.1667 16.0416Z" fill="#27AE60"/>
<path d="M29.1667 14.5833C29.1667 22.6377 22.6377 29.1667 14.5833 29.1667C6.52925 29.1667 0 22.6377 0 14.5833C0 6.52925 6.52925 0 14.5833 0C22.6377 0 29.1667 6.52925 29.1667 14.5833Z" fill="#93D500"/>
<path d="M20.4167 10.2083L11.6667 18.9583L8.02083 15.3124L4.92188 18.3749L8.56771 22.0207L11.4844 24.9374L11.6667 25.0832L23.5156 13.2707L20.4167 10.2083Z" fill="#27AE60"/>
<path d="M20.4167 8.75L11.6667 17.5L8.02083 13.8542L4.92188 16.9166L8.56771 20.5625L11.4844 23.4791L11.6667 23.6249L23.5156 11.8125L20.4167 8.75Z" fill="#ECF0F1"/>
</svg>
