<svg width="31" height="31" viewBox="0 0 31 31" fill="none" xmlns="http://www.w3.org/2000/svg">
<path d="M15.2714 2.18282C18.6051 2.31264 21.0053 3.22138 23.4056 5.03885C26.3393 7.11596 28.0728 10.1018 28.7395 13.7368C28.8729 14.7753 29.0062 15.5542 29.0062 16.7226C29.0062 17.6313 29.1396 17.891 29.2729 18.1506C29.4063 18.4103 29.673 18.5401 29.8063 18.5401C29.9397 18.5401 30.073 18.5401 30.073 18.4103C30.3397 18.2804 30.4731 17.891 30.3397 17.5015C30.3397 17.3717 30.2064 17.2419 30.2064 16.5928C30.2064 15.2946 30.073 14.5157 29.8063 13.4771C29.0062 9.45271 27.1394 6.20722 23.939 4.00029C21.272 2.053 18.6051 1.14426 15.0047 0.884626C13.9379 0.884626 13.8045 0.754807 13.8045 0.754807C13.5378 0.495168 13.1378 0.624987 12.8711 0.884626C13.0044 1.14426 13.0044 1.53372 13.2711 1.79336C13.8045 2.053 14.2046 2.18282 15.2714 2.18282Z" fill="white"/>
<path d="M23.8068 11.0102C24.4735 12.1785 24.8736 13.6066 24.8736 15.0346C24.8736 15.9433 25.0069 16.7222 25.807 17.2415C25.9403 17.2415 25.9403 17.3713 26.0737 17.3713C26.3404 17.3713 26.6071 17.2415 26.6071 16.9819C26.7404 16.7222 26.6071 16.3328 26.3404 16.0731C26.207 16.0731 26.0737 15.9433 26.0737 15.0346C26.0737 13.3469 25.6736 11.6593 24.8736 10.3611C24.0735 8.80324 22.74 7.50505 21.2732 6.72613C19.9397 5.94722 18.0728 5.42794 16.3393 5.29812C15.8059 5.29812 15.6725 5.1683 15.6725 5.03848C15.4058 4.77884 15.0058 4.77884 14.7391 5.03848C14.4724 5.29812 14.4724 5.68758 14.7391 5.94722C15.0058 6.33667 15.6725 6.46649 16.2059 6.46649C17.8061 6.59631 19.4063 7.11559 20.6064 7.76469C21.9399 8.5436 23.0067 9.58216 23.8068 11.0102Z" fill="white"/>
<path d="M21.807 13.9967C21.6737 13.0879 21.5403 12.4388 21.2736 11.9196C20.6069 10.6214 19.5401 9.84244 17.6732 9.71262C17.0065 9.5828 17.0065 9.58281 16.8731 9.45299C16.6064 9.19335 16.2064 9.06353 15.9397 9.32317C15.673 9.5828 15.673 9.97226 15.8063 10.2319C16.2064 10.6214 16.6064 10.7512 17.4065 10.881C18.74 11.0108 19.5401 11.5301 19.9401 12.4388C20.2068 12.9581 20.3402 13.4774 20.3402 14.1265C20.4735 14.7756 20.6069 15.2949 21.0069 15.5545C21.1403 15.6843 21.2736 15.6843 21.407 15.6843C21.6737 15.6843 21.807 15.5545 21.9404 15.4247C22.2071 15.165 22.0737 14.7756 21.807 14.5159C21.9404 14.5159 21.807 14.5159 21.807 13.9967Z" fill="white"/>
<path d="M30.3398 23.084C29.9397 22.6946 27.8062 21.0069 26.8727 20.3578C26.0726 19.8385 25.0058 19.1894 24.3391 18.9298C23.539 18.5403 22.6056 18.4105 21.8055 18.6702C21.1387 18.9298 20.872 19.1894 20.072 20.0982C19.6719 20.4876 19.4052 20.8771 19.4052 21.0069C19.4052 21.0069 19.2719 21.1367 19.1385 21.1367C18.7385 21.2665 18.0717 21.1367 16.8716 20.6174C15.8048 20.0982 15.0047 19.4491 13.9379 18.5403C13.0045 17.7614 12.2044 16.7229 11.671 15.9439C11.0043 14.9054 10.6042 13.6072 10.6042 13.0879C10.6042 12.8283 10.6042 12.4388 10.7376 12.309L10.8709 12.1792C11.0043 12.0494 11.271 11.9195 11.5377 11.6599C12.7378 10.7512 13.1378 10.3617 13.2712 9.71261C13.4045 9.06352 13.2712 8.2846 12.7378 7.24604C11.9377 5.68821 9.40409 2.31291 8.33731 1.66381C8.20396 1.53399 7.80391 1.40417 7.67056 1.27435C7.13717 1.14453 6.47043 1.14453 6.07038 1.14453C5.53699 1.27435 4.87025 1.66381 3.53677 2.57255C2.87002 3.09182 1.80324 4.13038 1.40319 4.64966C0.736452 5.94785 0.8698 6.98641 1.53654 8.67406C2.46998 11.0108 3.67011 13.3476 5.13695 15.6843C5.40364 16.0738 5.53699 16.3334 5.80369 16.7229C6.07038 17.1123 6.33708 17.372 6.60378 17.7614C9.00405 21.0069 11.9377 23.7331 15.2714 25.94L15.4048 26.0699C15.5381 26.1997 15.8048 26.3295 15.9382 26.4593L16.3382 26.719C16.6049 26.8488 16.7382 26.9786 17.0049 27.1084L20.7387 29.1855C21.0054 29.3154 21.2721 29.4452 21.5388 29.575L21.9388 29.7048C22.3389 29.8346 22.7389 30.0943 23.139 30.2241C23.9391 30.4837 24.3391 30.6135 24.8725 30.6135C25.0058 30.6135 25.0058 30.6135 25.1392 30.6135C26.0726 30.6135 26.8727 30.2241 27.8062 29.575C28.8729 28.7961 30.3398 27.1084 30.7398 26.0699C31.1399 24.9015 31.0065 23.8629 30.3398 23.084Z" fill="white"/>
</svg>
