<svg width="30" height="32" viewBox="0 0 30 32" fill="none" xmlns="http://www.w3.org/2000/svg">
<path fill-rule="evenodd" clip-rule="evenodd" d="M21.8728 18.9918C21.4995 18.805 19.6645 17.9022 19.3224 17.7775C18.9803 17.653 18.7315 17.5908 18.4827 17.9643C18.2339 18.3379 17.5186 19.1787 17.3009 19.4278C17.0832 19.6769 16.8654 19.7081 16.4923 19.5212C16.119 19.3344 14.9164 18.9403 13.4908 17.6687C12.3813 16.679 11.6322 15.4568 11.4145 15.0832C11.1968 14.7095 11.3913 14.5075 11.5781 14.3214C11.7461 14.1542 11.9514 13.8855 12.138 13.6675C12.3247 13.4497 12.3868 13.2939 12.5112 13.0449C12.6356 12.7958 12.5735 12.5779 12.4801 12.3911C12.3868 12.2043 11.6404 10.3671 11.3294 9.61971C11.0264 8.89203 10.7187 8.99059 10.4896 8.97904C10.2722 8.96826 10.023 8.96598 9.77432 8.96598C9.52553 8.96598 9.12111 9.05937 8.77898 9.43291C8.43691 9.80656 7.47275 10.7096 7.47275 12.5466C7.47275 14.3838 8.8101 16.1584 8.99672 16.4076C9.18334 16.6567 11.6285 20.4265 15.3727 22.0432C16.263 22.4278 16.9583 22.6574 17.5003 22.8294C18.3944 23.1135 19.208 23.0734 19.8512 22.9773C20.5682 22.8702 22.0593 22.0745 22.3704 21.2027C22.6813 20.3307 22.6813 19.5835 22.5881 19.4278C22.4948 19.2721 22.246 19.1787 21.8728 18.9918ZM15.0628 28.2903H15.0577C12.8299 28.2894 10.6448 27.6908 8.73867 26.5597L8.28527 26.2906L3.58641 27.5233L4.84061 22.9418L4.54547 22.4721C3.30264 20.4954 2.64621 18.2108 2.64721 15.8649C2.64996 9.01965 8.21947 3.45061 15.0677 3.45061C18.3838 3.45172 21.501 4.74482 23.8451 7.09156C26.1891 9.43824 27.4792 12.5575 27.4779 15.8749C27.4751 22.7206 21.9057 28.2903 15.0628 28.2903ZM25.6291 5.30838C22.8089 2.48498 19.0585 0.929375 15.0626 0.927734C6.82934 0.927734 0.128496 7.62816 0.125156 15.8639C0.124102 18.4967 0.811875 21.0662 2.1191 23.3316L0 31.0719L7.91842 28.9948C10.1002 30.1848 12.5566 30.8121 15.0567 30.8129H15.0628C23.2952 30.8129 29.9966 24.1118 30 15.8759C30.0015 11.8846 28.4492 8.13178 25.6291 5.30838Z" fill="white"/>
</svg>
