<svg width="50" height="50" viewBox="0 0 50 50" fill="none" xmlns="http://www.w3.org/2000/svg">
<path d="M49.7706 29.1508V11.1972C49.7706 9.8458 48.8218 8.6875 47.6141 8.6875H31.3977C30.2763 8.6875 29.2412 9.74928 29.2412 11.1972V29.0543C29.2412 30.4056 30.19 31.5639 31.3977 31.5639H47.7004C48.8218 31.6605 49.7706 30.5987 49.7706 29.1508Z" fill="#93D500"/>
<path d="M15.1813 16.6989C18.1141 16.6989 20.6156 14.0927 20.6156 10.8109C20.6156 7.52903 18.2003 4.92285 15.1813 4.92285C12.2485 4.92285 9.74707 7.52903 9.74707 10.8109C9.74707 14.1893 12.1623 16.6989 15.1813 16.6989ZM15.1813 6.75683C17.3378 6.75683 19.0629 8.68733 19.0629 10.8109C19.0629 13.1275 17.3378 14.8649 15.1813 14.8649C13.0249 14.8649 11.2997 12.9344 11.2997 10.8109C11.386 8.68733 13.0249 6.75683 15.1813 6.75683Z" fill="#333333"/>
<path d="M20.2706 26.5444V24.4209C20.1844 23.8417 19.8393 23.4556 19.4943 23.4556C19.063 23.4556 18.718 23.8417 18.718 24.3243V26.1583H15.9577L15.1814 23.0695C15.0951 22.6834 14.7501 22.4904 14.4913 22.4904H0.862579C0.603805 22.4904 0.431289 22.5869 0.258773 22.8765C-6.68379e-07 22.973 0 23.2626 0 23.5521L3.01903 34.9421C3.10529 35.3282 3.45032 35.5212 3.70909 35.5212H17.2516C17.5104 35.5212 17.6829 35.4247 17.8554 35.1351C18.0279 34.8456 18.0279 34.6525 17.9416 34.3629L16.389 27.8958H18.9767C19.6668 27.8958 20.2706 27.3166 20.2706 26.5444ZM4.39915 33.8803L1.81142 24.2278H13.8013L16.3027 33.8803H4.39915Z" fill="#333333"/>
<path d="M8.97085 20.8499C9.66091 20.1742 10.696 19.6916 11.8174 19.6916H18.6317C20.9607 19.6916 22.7721 21.7186 22.7721 24.1317C22.7721 24.6143 23.1171 25.0004 23.5484 25.0004C23.9797 25.0004 24.3248 24.6143 24.3248 24.1317C24.3248 20.6568 21.737 17.9541 18.6317 17.9541H11.8174C10.2647 17.9541 8.97085 18.5333 7.93575 19.6916C7.59072 19.9811 7.59072 20.5603 7.8495 20.8499C8.10827 21.1394 8.71207 21.1394 8.97085 20.8499Z" fill="#333333"/>
<path d="M30.9664 25.8691C34.5892 25.8691 37.6945 22.5872 37.6945 18.5332C37.6945 14.4791 34.6755 11.1973 30.9664 11.1973C27.3436 11.1973 24.2383 14.4791 24.2383 18.5332C24.2383 22.5872 27.1711 25.7726 30.9664 25.8691ZM30.9664 13.0312C33.7267 13.0312 36.0556 15.5409 36.0556 18.5332C36.0556 21.5255 33.8129 24.0351 30.9664 24.0351C28.1199 24.0351 25.8772 21.5255 25.8772 18.5332C25.7909 15.5409 28.0336 13.0312 30.9664 13.0312Z" fill="#333333"/>
<path d="M49.8576 33.9773C49.6851 33.6877 49.5125 33.5912 49.2538 33.5912H31.9159C31.6571 33.5912 31.3121 33.7842 31.2259 34.1703L30.1908 38.1278H26.3092V35.6182C26.3092 35.1356 25.9641 34.7495 25.5328 34.7495C25.1015 34.7495 24.7565 35.1356 24.7565 35.6182V38.3209C24.7565 39.1896 25.3603 39.9618 26.2229 39.9618H29.7595L28.6381 43.7263H23.8939C22.3413 43.7263 21.1337 42.3749 21.1337 40.734V35.3286C21.1337 32.1433 23.5489 29.4406 26.5679 29.4406H35.1075C36.5739 29.4406 37.8677 30.0197 38.8166 31.0815C39.0753 31.3711 39.5929 31.3711 39.8516 30.985C40.1104 30.6954 40.1104 30.1162 39.7654 29.8267C38.5578 28.5718 36.8326 27.7031 34.9349 27.7031H26.3954C22.5138 27.7031 19.3223 31.0815 19.3223 35.4251H19.4085V40.8305C19.4085 43.5332 21.3925 45.6568 23.8077 45.6568H28.0343L27.3443 48.1664H22.4275C21.9963 48.1664 21.6512 48.5525 21.6512 49.0352C21.6512 49.5178 21.9963 49.9039 22.4275 49.9039H27.6893C27.7755 50.0004 27.9481 50.0004 28.0343 50.0004H45.3722C45.6309 50.0004 45.976 49.8074 46.0622 49.4213L49.9438 34.846C50.0301 34.4599 50.0301 34.1703 49.8576 33.9773ZM44.8546 48.0699H29.1557L29.8457 45.3672C30.0182 45.1742 30.1045 44.9811 30.1045 44.6915C30.1045 44.595 30.1045 44.595 30.1045 44.4985L32.5197 35.3286H48.2187L44.8546 48.0699Z" fill="#333333"/>
<path d="M34.5032 7.52896H38.6436V12.1622C38.6436 12.7413 39.0749 13.1274 39.5062 13.1274C39.9375 13.1274 40.3687 12.6448 40.3687 12.1622V7.52896H44.5091C45.0267 7.52896 45.3717 7.04633 45.3717 6.56371C45.3717 6.08108 44.9404 5.59845 44.5091 5.59845H40.3687V0.965251C40.3687 0.3861 39.9375 0 39.5062 0C39.0749 0 38.6436 0.482625 38.6436 0.965251V5.59845H34.5032C33.9857 5.59845 33.6406 6.08108 33.6406 6.56371C33.6406 7.04633 33.9857 7.52896 34.5032 7.52896Z" fill="#333333"/>
</svg>
