<svg width="50" height="50" viewBox="0 0 50 50" fill="none" xmlns="http://www.w3.org/2000/svg">
<path d="M27.3167 0H46.0159C48.211 0 49.9996 1.78862 49.9996 3.98374V17.3984C49.9996 19.5935 48.211 21.3821 46.0159 21.3821H27.3167C25.1216 21.3821 23.333 19.5935 23.333 17.3984V4.06504C23.333 1.78862 25.1216 0 27.3167 0Z" fill="#93D500"/>
<path d="M42.764 9.8374C42.1136 9.8374 41.5445 9.2683 41.5445 8.61789C41.5445 7.96749 42.1136 7.39838 42.764 7.39838C43.4144 7.39838 43.9835 7.96749 43.9835 8.61789C43.9835 9.1057 44.39 9.5122 44.8778 9.5122C45.3656 9.5122 45.7721 9.1057 45.7721 8.61789C45.7721 7.23578 44.8778 6.09757 43.6583 5.77237V5.44716C43.6583 4.95936 43.2518 4.55286 42.764 4.55286C42.2762 4.55286 41.8697 4.95936 41.8697 5.44716V5.77237C40.6502 6.17887 39.7559 7.31708 39.7559 8.61789C39.7559 10.3252 41.138 11.626 42.764 11.626C43.4144 11.626 43.9835 12.1951 43.9835 12.8455C43.9835 13.4959 43.4144 14.065 42.764 14.065C42.1136 14.065 41.5445 13.4959 41.5445 12.8455C41.5445 12.3577 41.138 11.9512 40.6502 11.9512C40.1624 11.9512 39.7559 12.3577 39.7559 12.8455C39.7559 14.2276 40.6502 15.3659 41.8697 15.6911V16.0163C41.8697 16.5041 42.2762 16.9106 42.764 16.9106C43.2518 16.9106 43.6583 16.5041 43.6583 16.0163V15.6911C44.8778 15.2846 45.7721 14.1463 45.7721 12.8455C45.7721 11.2195 44.4713 9.8374 42.764 9.8374Z" fill="#333333"/>
<path d="M39.5121 26.2601L35.3658 25.7723C35.0406 24.4715 34.5528 23.252 33.8211 22.1138L36.3414 18.7805C36.5853 18.4553 36.5853 17.8862 36.2601 17.6423L32.439 13.8211C32.1138 13.4959 31.626 13.4959 31.3008 13.7398L27.9674 16.2602C26.8292 15.6098 25.6097 15.122 24.3089 14.7154L23.7398 10.5691C23.6585 10.1626 23.3333 9.7561 22.8455 9.7561H17.3984C16.9918 9.7561 16.5853 10.0813 16.504 10.5691L15.9349 14.7154C14.6341 15.0407 13.4146 15.5285 12.2764 16.2602L8.94308 13.7398C8.61788 13.4959 8.04877 13.4959 7.80487 13.8211L4.06504 17.6423C3.73983 17.9675 3.73983 18.4553 3.98373 18.7805L6.50406 22.1138C5.85365 23.252 5.36585 24.4715 4.95934 25.7723L0.813007 26.3415C0.406504 26.4228 0 26.748 0 27.2358V32.6829C0 33.0894 0.325203 33.4959 0.813007 33.5772L4.95934 34.1463C5.28455 35.4471 5.77235 36.6666 6.50406 37.8049L3.98373 40.9756C3.73983 41.3008 3.73983 41.8699 4.06504 42.1138L7.88617 45.9349C8.21137 46.2601 8.69918 46.2601 9.02438 46.0162L12.3577 43.4959C13.4959 44.1463 14.7154 44.6341 16.0162 45.0406L16.5853 49.187C16.6666 49.5935 16.9918 50 17.4797 50H22.9268C23.3333 50 23.7398 49.6748 23.8211 49.187L24.3902 45.0406C25.691 44.7154 26.9105 44.2276 28.0487 43.4959L31.3821 46.0162C31.7073 46.2601 32.2764 46.2601 32.5203 45.9349L36.3414 42.1138C36.6666 41.7886 36.6666 41.3008 36.4227 40.9756L33.9024 37.6422C34.5528 36.504 35.0406 35.2845 35.4471 33.9837L39.5935 33.4146C40 33.3333 40.4065 33.0081 40.4065 32.5203V27.0732C40.2439 26.748 39.9187 26.3414 39.5121 26.2601ZM38.4552 31.8699L34.5528 32.439C34.1463 32.5203 33.9024 32.7642 33.8211 33.0894C33.4959 34.5528 32.8455 36.0162 32.0325 37.317C31.8699 37.6422 31.8699 38.0488 32.1138 38.2927L34.5528 41.4634L31.7886 44.2276L28.6179 41.7886C28.2926 41.5447 27.8861 41.5447 27.6422 41.7073C26.3414 42.5203 24.878 43.0894 23.4146 43.4959C23.0894 43.5772 22.7642 43.9024 22.7642 44.2276L22.1951 48.13H18.2927L17.7236 44.2276C17.6423 43.8211 17.3984 43.5772 17.0731 43.4959C15.6097 43.1707 14.1463 42.6016 12.8455 41.7073C12.5203 41.5447 12.1138 41.5447 11.8699 41.7886L8.69918 44.2276L5.93495 41.4634L8.37397 38.2927C8.61788 37.9675 8.61788 37.5609 8.45527 37.317C7.64227 36.0162 7.07316 34.5528 6.66666 33.0894C6.58536 32.7642 6.26015 32.439 5.93495 32.439L2.03252 31.8699V27.9675L5.93495 27.3984C6.34146 27.3171 6.58536 27.0732 6.66666 26.748C6.99186 25.2845 7.64227 23.8211 8.45527 22.5203C8.61788 22.1951 8.61788 21.7886 8.37397 21.5447L5.93495 18.374L8.69918 15.6098L11.8699 18.0488C12.1951 18.2927 12.6016 18.2927 12.8455 18.1301C14.1463 17.3171 15.6097 16.748 17.0731 16.3415C17.3984 16.2602 17.7236 15.935 17.7236 15.6098L18.2927 11.7073H22.1951L22.7642 15.6098C22.8455 16.0163 23.0894 16.2602 23.4146 16.3415C24.878 16.6667 26.3414 17.3171 27.6422 18.1301C27.9674 18.2927 28.3739 18.2927 28.6179 18.0488L31.7886 15.6098L34.5528 18.374L32.1138 21.5447C31.8699 21.8699 31.8699 22.2764 32.0325 22.5203C32.8455 23.8211 33.4146 25.2845 33.8211 26.748C33.9024 27.0732 34.2276 27.3984 34.5528 27.3984L38.4552 27.9675V31.8699Z" fill="#333333"/>
<path d="M20.1629 17.9679C13.5775 17.9679 8.29297 23.3337 8.29297 29.8378C8.29297 36.3419 13.6588 41.7077 20.1629 41.7077C26.6669 41.7077 32.0328 36.3419 32.0328 29.8378C32.0328 23.3337 26.7482 17.9679 20.1629 17.9679ZM20.1629 40.0004C14.5531 40.0004 10.0816 35.4475 10.0816 29.9191C10.0816 24.3906 14.6344 19.8378 20.1629 19.8378C25.7726 19.8378 30.2442 24.3906 30.2442 29.9191C30.2442 35.4475 25.7726 40.0004 20.1629 40.0004Z" fill="#333333"/>
<path d="M21.0572 29.5125V22.7645C21.0572 22.2767 20.6507 21.8702 20.1629 21.8702C19.6751 21.8702 19.2686 22.2767 19.2686 22.7645V29.919C19.2686 30.1629 19.3499 30.4068 19.5125 30.5694L22.2767 33.3336C22.4393 33.4962 22.6832 33.5775 22.9271 33.5775C23.171 33.5775 23.4149 33.4962 23.5775 33.3336C23.9027 33.0084 23.9027 32.4393 23.5775 32.0328L21.0572 29.5125Z" fill="#333333"/>
</svg>
