<svg width="50" height="51" viewBox="0 0 50 51" fill="none" xmlns="http://www.w3.org/2000/svg">
<path d="M49.0376 49.3843C47.7537 50.6682 45.6139 50.6682 44.33 49.3843L32.6895 37.7437L37.397 33.0361L49.0376 44.6767C50.3215 46.0462 50.3215 48.1004 49.0376 49.3843Z" fill="#93D500"/>
<path d="M27.3824 28.586V27.6445C27.3824 26.3606 26.8689 25.3335 25.9274 24.6488C24.8147 23.7073 23.4452 23.2793 21.8189 23.2793C20.2783 23.2793 18.9088 23.7929 17.7105 24.7344C16.769 25.5047 16.2554 26.6174 16.2554 27.7301V28.7572C15.3139 29.3564 14.8859 30.4691 15.1427 31.5818L15.2283 31.8385C15.3139 32.6089 15.9131 33.2936 16.6834 33.8072L17.1114 34.8343C17.7961 36.8029 19.6791 38.0868 21.7333 38.0868C23.8732 38.0868 25.6706 36.7173 26.3553 34.7487L26.7833 33.636C27.5536 33.208 28.1528 32.5233 28.2384 31.753L28.324 31.325C28.6663 30.2979 28.2384 29.1852 27.3824 28.586ZM26.6121 30.9826L26.5265 31.4106C26.4409 31.7529 26.2697 31.9241 26.0986 32.0097L25.9274 32.0953C25.6706 32.1809 25.4138 32.3521 25.3282 32.6089L24.7291 34.1495C24.3011 35.4334 23.1884 36.2893 21.8189 36.2893C20.535 36.2893 19.3368 35.4334 18.9088 34.2351L18.3952 32.7801C18.3096 32.5233 18.0529 32.3521 17.7961 32.2665L17.6249 32.1809C17.3681 32.0097 17.1114 31.753 17.1114 31.4962L17.0258 31.0682C16.8546 30.6402 17.1969 30.2979 17.5393 30.2123C17.8817 30.1267 18.1385 29.6987 18.1385 29.3564V27.8157C18.1385 27.2165 18.3952 26.6174 18.9088 26.1894C19.6791 25.5047 20.7062 25.1623 21.8189 25.1623C22.9316 25.1623 23.9587 25.5047 24.7291 26.1894C25.3282 26.6174 25.4994 27.3021 25.4994 27.7301V29.1852C25.4994 29.6131 25.7562 29.9555 26.0986 30.0411C26.5265 30.2123 26.6977 30.6402 26.6121 30.9826Z" fill="#4D585A"/>
<path d="M16.0843 21.9095C17.5393 21.9095 18.9944 21.396 20.2783 20.54C20.5351 20.3689 20.6207 20.1121 20.6207 19.8553C20.6207 19.5985 20.5351 19.3417 20.3639 19.1706C19.5936 18.4002 18.7376 15.5757 18.3097 11.8952C17.8817 9.07066 15.6563 7.18762 12.9174 7.18762H12.575H12.3182C9.57925 7.18762 7.35385 9.15625 6.84029 11.9808C6.41233 15.6613 5.642 18.4002 4.78607 19.1706C4.61489 19.3417 4.5293 19.5985 4.5293 19.8553C4.5293 20.1121 4.70048 20.3689 4.87167 20.54C6.06996 21.4816 7.52503 21.9095 9.0657 21.9095C9.23688 21.9095 9.32247 21.9095 9.49366 21.9095C10.0072 21.9095 10.3496 21.4816 10.3496 20.968C10.3496 20.4545 9.92162 20.1121 9.40807 20.1121C8.55214 20.1977 7.61062 19.9409 6.84029 19.5985C7.35385 18.657 7.78181 17.2875 8.12418 15.8325V15.9181L8.29536 16.6028C8.63773 18.4858 9.92162 20.0265 11.7191 20.6256C12.0614 20.7968 12.3182 20.7968 12.4894 20.7968C12.7462 20.7968 12.9174 20.7112 13.0029 20.7112C13.0885 20.7112 13.1741 20.7112 13.1741 20.7112C15.0572 20.1977 16.4266 18.5714 16.769 16.6884L16.9402 15.9181C17.0258 15.4045 16.769 14.8909 16.2555 14.8054C15.7419 14.7198 15.2284 14.9765 15.1428 15.4901L14.9716 16.1748C14.7148 17.3731 13.9445 18.4002 12.7462 18.7426C12.575 18.7426 12.4894 18.8282 12.4038 18.8282C12.4038 18.8282 12.3182 18.8282 12.3182 18.7426C11.2055 18.4002 10.3496 17.3731 10.0928 16.0892L9.92162 15.3189C9.83603 14.8053 9.32247 14.5486 8.80892 14.6342C8.55214 14.7198 8.38096 14.8053 8.29536 14.9765C8.46655 13.9494 8.63773 12.9223 8.72333 12.0664C9.0657 10.1834 10.5208 8.89947 12.3182 8.89947H12.575H12.8318C14.6292 8.89947 16.1699 10.1834 16.4266 12.0664C16.769 14.5486 17.2826 17.6299 18.3097 19.4273C17.5393 19.8553 16.5978 20.0265 15.7419 19.9409C15.2284 19.9409 14.8004 20.2833 14.8004 20.7968C14.8004 21.3104 15.1428 21.7383 15.6563 21.7383C15.8275 21.9095 15.9131 21.9095 16.0843 21.9095Z" fill="#4D585A"/>
<path d="M11.7188 10.6109C11.5476 10.0974 11.034 9.84061 10.6061 10.0118C10.0925 10.183 9.83573 10.6965 10.0069 11.1245C10.0069 11.2101 10.8628 13.8635 14.6289 13.8635C14.8001 13.8635 14.9713 13.8635 15.0569 13.8635C15.5704 13.8635 15.9984 13.4355 15.9128 12.9219C15.9128 12.4084 15.4848 11.9804 14.9713 12.066C12.3179 12.1516 11.7188 10.6965 11.7188 10.6109Z" fill="#4D585A"/>
<path d="M34.2301 12.4087V11.4672C34.2301 10.1833 33.7165 9.1562 32.775 8.47146C30.3784 6.50284 26.9547 6.50284 24.5582 8.47146C23.6166 9.2418 23.1031 10.3545 23.1031 11.4672V12.4087C22.1616 13.0079 21.7336 14.1206 21.9904 15.2333L22.076 15.49C22.2472 16.2604 22.8463 17.1163 23.531 17.4587L23.959 18.4858C24.6437 20.54 26.4412 21.9095 28.581 21.9095C30.7208 21.9095 32.5183 20.54 33.203 18.5714L33.631 17.4587C34.4013 17.0307 35.0004 16.346 35.086 15.5756L35.1716 15.1477C35.5996 14.1206 35.1716 13.0079 34.2301 12.4087ZM33.5454 14.7197L33.4598 15.1477C33.3742 15.49 33.203 15.6612 33.0318 15.7468L32.8606 15.8324C32.6038 15.918 32.3471 16.0892 32.2615 16.346L31.6623 17.8866C31.2344 19.1705 30.1217 20.0264 28.7522 20.0264C27.3827 20.0264 26.27 19.1705 25.842 17.8866L25.3285 16.4316C25.2429 16.1748 24.9861 16.0036 24.7293 15.918L24.4726 15.8324C24.3014 15.7468 24.0446 15.49 24.0446 15.1477L23.959 14.7197C23.7878 14.2918 24.1302 13.9494 24.4726 13.8638C24.8149 13.7782 25.0717 13.3502 25.0717 13.0079V11.5528C25.0717 10.9536 25.3285 10.3545 25.842 9.92654C26.698 9.2418 27.7251 8.89943 28.7522 8.89943C29.7793 8.89943 30.8064 9.2418 31.7479 9.92654C32.3471 10.3545 32.5183 11.0392 32.5183 11.4672V12.9223C32.5183 13.3502 32.775 13.6926 33.1174 13.7782C33.3742 13.9494 33.631 14.3773 33.5454 14.7197Z" fill="#4D585A"/>
<path d="M30.4637 10.6113C29.9501 10.4401 29.4366 10.6969 29.2654 11.2104C29.2654 11.2104 28.7518 12.5799 26.2696 12.4943C25.7561 12.4943 25.3281 12.9223 25.3281 13.3502C25.3281 13.8638 25.7561 14.2918 26.184 14.2918C26.2696 14.2918 26.3552 14.2918 26.4408 14.2918C30.1213 14.2918 30.9772 11.8096 30.9772 11.724C31.234 11.296 30.9772 10.7825 30.4637 10.6113Z" fill="#4D585A"/>
<path d="M40.3923 11.724C39.4507 9.75534 38.0813 7.87231 36.455 6.24605C35.3423 5.13335 34.144 4.19183 32.6889 3.25032C29.6932 1.45288 26.5263 0.340175 23.1026 0.0833979C20.4492 -0.173379 17.5391 0.168989 14.7145 1.02491C11.5476 2.13762 8.63745 3.93506 6.41205 6.16046C5.8129 6.67402 5.29934 7.27316 4.78579 7.87231C2.98835 9.92653 1.70446 12.3231 0.934129 15.0621C-1.37687 22.6798 0.677352 30.8967 6.24086 36.4602C10.4349 40.5686 15.9128 42.6228 21.3907 42.6228C26.8686 42.6228 32.3466 40.5686 36.455 36.5458C42.96 29.8696 44.5007 19.9408 40.3923 11.724ZM35.0855 35.1763C27.4678 42.6228 15.0569 42.6228 7.43916 35.0907C2.30361 29.9552 0.506166 22.5086 2.56039 15.49C3.24512 13.0079 4.44342 10.868 6.06968 8.98501C6.49764 8.47146 6.9256 7.9579 7.52475 7.44435C9.66456 5.30454 12.2323 3.67828 15.1425 2.65117C17.7102 1.79525 20.3636 1.53847 22.8458 1.79525C26.0127 2.05202 28.9229 3.07913 31.6618 4.70539C33.0313 5.56131 34.144 6.41724 35.0855 7.44435C36.6262 8.98501 37.8245 10.6969 38.6804 12.4943C42.5321 20.0264 41.077 29.0992 35.0855 35.1763Z" fill="#4D585A"/>
</svg>
