<svg width="50" height="50" viewBox="0 0 50 50" fill="none" xmlns="http://www.w3.org/2000/svg">
<path d="M14.3302 28.8401C22.2446 28.8401 28.6604 22.384 28.6604 14.4201C28.6604 6.45608 22.2446 0 14.3302 0C6.41586 0 0 6.45608 0 14.4201C0 22.384 6.41586 28.8401 14.3302 28.8401Z" fill="#93D500"/>
<path d="M49.143 44.2794H44.4702V27.1948V9.16969C44.4702 8.69947 44.0807 8.30762 43.6135 8.30762H37.3829H31.9312H25.7007C25.2334 8.30762 24.844 8.69947 24.844 9.16969V26.2543H19.548H14.0963H7.86579C7.3985 26.2543 7.00909 26.6462 7.00909 27.1164V44.201H2.33619C1.8689 44.201 1.47949 44.5929 1.47949 45.0631V49.1383C1.47949 49.6086 1.8689 50.0004 2.33619 50.0004H49.143C49.6103 50.0004 49.9997 49.6086 49.9997 49.1383V45.0631C49.9997 44.6713 49.6103 44.2794 49.143 44.2794ZM26.6353 28.0568H31.0745V35.2669C31.0745 35.7371 31.4639 36.1289 31.9312 36.1289H37.3829C37.8502 36.1289 38.2396 35.7371 38.2396 35.2669V28.0568H42.6789V44.201H26.6353V28.0568ZM32.8658 28.0568H36.5262V34.4048H32.8658V28.0568ZM36.4483 10.1101V16.4581H32.7879V10.1101H36.4483ZM26.6353 10.1101H31.0745V17.3202C31.0745 17.7904 31.4639 18.1822 31.9312 18.1822H37.3829C37.8502 18.1822 38.2396 17.7904 38.2396 17.3202V10.1101H42.6789V26.2543H37.3829H31.9312H26.6353V10.1101ZM18.6135 28.0568V34.4048H14.953V28.0568H18.6135ZM8.80037 28.0568H13.2396V35.2669C13.2396 35.7371 13.629 36.1289 14.0963 36.1289H19.548C20.0153 36.1289 20.4047 35.7371 20.4047 35.2669V28.0568H24.844V44.201H8.80037V28.0568ZM48.2864 48.3546H3.19289V46.0819H7.86579H25.7786H43.6135H48.2864V48.3546Z" fill="#333333"/>
<path d="M6.54142 10.3448C7.00871 10.3448 7.39812 9.95292 7.39812 9.4827V8.15041H8.72211C9.1894 8.15041 9.57881 7.75856 9.57881 7.28834C9.57881 6.81812 9.1894 6.26953 8.72211 6.26953H6.54142C6.07414 6.26953 5.68473 6.66138 5.68473 7.1316V9.40433C5.60685 9.87455 5.99625 10.3448 6.54142 10.3448Z" fill="#333333"/>
<path d="M15.4983 8.07204H16.8223V9.40433C16.8223 9.87455 17.2117 10.2664 17.679 10.2664C18.1463 10.2664 18.5357 9.87455 18.5357 9.40433V7.20997C18.5357 6.73975 18.1463 6.3479 17.679 6.3479H15.4983C15.031 6.3479 14.6416 6.73975 14.6416 7.20997C14.6416 7.68019 15.031 8.07204 15.4983 8.07204Z" fill="#333333"/>
<path d="M15.4983 19.357H17.679C18.1463 19.357 18.5357 18.9651 18.5357 18.4949V16.3005C18.5357 15.8303 18.1463 15.4385 17.679 15.4385C17.2117 15.4385 16.8223 15.8303 16.8223 16.3005V17.6328H15.4983C15.031 17.6328 14.6416 18.0247 14.6416 18.4949C14.6416 18.9651 15.031 19.357 15.4983 19.357Z" fill="#333333"/>
<path d="M6.54142 19.357H8.72211C9.1894 19.357 9.57881 18.9651 9.57881 18.4949C9.57881 18.0247 9.1894 17.6328 8.72211 17.6328H7.39812V16.3005C7.39812 15.8303 7.00871 15.4385 6.54142 15.4385C6.07414 15.4385 5.68473 15.8303 5.68473 16.3005V18.4949C5.60685 18.9651 5.99625 19.357 6.54142 19.357Z" fill="#333333"/>
<path d="M12.0715 14.3413C12.8888 14.3413 13.5513 13.6747 13.5513 12.8523C13.5513 12.0299 12.8888 11.3633 12.0715 11.3633C11.2543 11.3633 10.5918 12.0299 10.5918 12.8523C10.5918 13.6747 11.2543 14.3413 12.0715 14.3413Z" fill="#333333"/>
</svg>
