<svg width="50" height="51" viewBox="0 0 50 51" fill="none" xmlns="http://www.w3.org/2000/svg">
<path fill-rule="evenodd" clip-rule="evenodd" d="M36.7143 22.8301L35.8511 15.866C35.6481 14.2281 34.2816 13 32.6622 13H18.2665C16.6472 13 15.2806 14.2281 15.0775 15.866L14.2143 22.8301C12.439 22.8301 11 24.2971 11 26.1068V31.0218C11 31.9265 11.7197 32.6602 12.6071 32.6602H38.3214C39.2091 32.6602 39.9286 31.9265 39.9286 31.0218V26.1068C39.9286 24.2971 38.4895 22.8301 36.7143 22.8301Z" fill="#93D500"/>
<path d="M42.8571 0H7.14286C3.20429 0 0 3.26559 0 7.28155V43.6893C0 47.7053 3.20429 50.9709 7.14286 50.9709H42.8571C46.7957 50.9709 50 47.7053 50 43.6893V7.28155C50 3.26559 46.7957 0 42.8571 0ZM46.4286 43.6893C46.4286 45.6963 44.8268 47.3301 42.8571 47.3301H7.14286C5.17321 47.3301 3.57143 45.6963 3.57143 43.6893V7.28155C3.57143 5.27458 5.17321 3.64078 7.14286 3.64078H42.8571C44.8268 3.64078 46.4286 5.27458 46.4286 7.28155V43.6893ZM39.1091 22.1239L38.3127 15.6972C37.9743 12.9755 35.6891 10.9223 32.9973 10.9223H17.0027C14.3111 10.9223 12.0257 12.9755 11.6873 15.699L10.8911 22.1239C8.72625 22.8253 7.14286 24.8694 7.14286 27.3058V32.767C7.14286 34.774 8.74464 36.4078 10.7143 36.4078V38.2282C10.7143 39.2343 11.5139 40.0485 12.5 40.0485H14.2857C15.2718 40.0485 16.0714 39.2343 16.0714 38.2282V36.4078H33.9286V38.2282C33.9286 39.2343 34.7282 40.0485 35.7143 40.0485H37.5C38.4861 40.0485 39.2857 39.2343 39.2857 38.2282V36.4078C41.2554 36.4078 42.8571 34.774 42.8571 32.767V27.3058C42.8571 24.8696 41.2739 22.8255 39.1091 22.1239ZM17.0027 14.5631H32.9973C33.8945 14.5631 34.6566 15.2476 34.7691 16.1541L35.4745 21.8447H14.5255L15.2309 16.1559C15.3434 15.2476 16.1054 14.5631 17.0027 14.5631ZM10.7143 32.767V27.3058C10.7143 26.3013 11.5155 25.4854 12.5 25.4854H37.5C38.4845 25.4854 39.2857 26.3013 39.2857 27.3058L39.2884 32.767H10.7143ZM16.0714 29.1262C16.0714 30.1314 15.272 30.9466 14.2857 30.9466C13.2995 30.9466 12.5 30.1314 12.5 29.1262C12.5 28.121 13.2996 27.3058 14.2857 27.3058C15.2718 27.3058 16.0714 28.1208 16.0714 29.1262ZM37.5 29.1262C37.5 30.1314 36.7005 30.9466 35.7143 30.9466C34.728 30.9466 33.9286 30.1314 33.9286 29.1262C33.9286 28.121 34.7282 27.3058 35.7143 27.3058C36.7004 27.3058 37.5 28.1208 37.5 29.1262Z" fill="#4D585A"/>
</svg>
