<svg width="179" height="171" viewBox="0 0 179 171" fill="none" xmlns="http://www.w3.org/2000/svg">
<path d="M51.2777 157.535C83.2064 171.126 112.204 174.355 116.046 164.748C119.89 155.141 97.1207 136.334 65.192 122.742C33.2633 109.152 4.26523 105.923 0.422902 115.53C-3.41941 125.138 19.3491 143.944 51.2777 157.535Z" fill="#93D500"/>
<path d="M162.229 161H34.7708C25.52 161 18 153.48 18 144.229V0H50.9849L64.2942 73.2147L105.208 36.0238V70.31L145.458 36.386V69.4514L179 35.42V144.229C179 153.48 171.48 161 162.229 161ZM24.7083 6.70833V144.229C24.7083 149.777 29.223 154.292 34.7708 154.292H162.229C167.777 154.292 172.292 149.777 172.292 144.229V51.7883L143.989 80.5H138.75V50.8156L103.531 80.5H98.5V51.1846L66.253 80.5H58.8068L45.3901 6.70833H24.7083ZM78.375 134.167H51.5417V107.333H78.375V134.167ZM58.25 127.458H71.6667V114.042H58.25V127.458ZM118.625 134.167H91.7917V107.333H118.625V134.167ZM98.5 127.458H111.917V114.042H98.5V127.458ZM158.875 134.167H132.042V107.333H158.875V134.167ZM138.75 127.458H152.167V114.042H138.75V127.458Z" fill="black"/>
</svg>
