<svg width="179" height="171" viewBox="0 0 179 171" fill="none" xmlns="http://www.w3.org/2000/svg">
<path d="M51.2777 157.535C83.2064 171.126 112.204 174.355 116.046 164.748C119.89 155.141 97.1207 136.334 65.192 122.742C33.2633 109.152 4.26523 105.923 0.422902 115.53C-3.41941 125.138 19.3491 143.944 51.2777 157.535Z" fill="#93D500"/>
<path d="M162.229 40.25H152.167V16.7708C152.167 7.52675 144.647 0 135.396 0H61.6042C52.3534 0 44.8333 7.52675 44.8333 16.7708V40.25H34.7708C25.52 40.25 18 47.7768 18 57.0208V161H179V57.0208C179 47.7768 171.48 40.25 162.229 40.25ZM24.7083 154.292V57.0208C24.7083 51.473 29.223 46.9583 34.7708 46.9583H44.8333V154.292H24.7083ZM145.458 154.292H51.5417V16.7708C51.5417 11.223 56.0564 6.70833 61.6042 6.70833H135.396C140.944 6.70833 145.458 11.223 145.458 16.7708V154.292ZM172.292 154.292H152.167V46.9583H162.229C167.777 46.9583 172.292 51.473 172.292 57.0208V154.292ZM71.6667 93.9167H91.7917V100.625H71.6667V93.9167ZM105.208 93.9167H125.333V100.625H105.208V93.9167ZM71.6667 120.75H91.7917V127.458H71.6667V120.75ZM105.208 120.75H125.333V127.458H105.208V120.75ZM101.854 50.3125V67.0833H95.1458V50.3125H78.375V43.6042H95.1458V26.8333H101.854V43.6042H118.625V50.3125H101.854Z" fill="black"/>
</svg>
